<?xml version="1.0" encoding="utf-8"?>
<svg version="1.1" xmlns="http://www.w3.org/2000/svg" xmlns:xlink="http://www.w3.org/1999/xlink"
	 xml:space="preserve"
	 id="icon-move-to-back"
	 x="0px" y="0px"
	 width="14" height="14"
	 viewBox="0 0 14 14">
	<path d="M13,1v4H9V1H13 M13.5,0h-5C8.2,0,8,0.2,8,0.5v5C8,5.8,8.2,6,8.5,6h5C13.8,6,14,5.8,14,5.5v-5
		C14,0.2,13.8,0,13.5,0L13.5,0z M5,9v4H1V9H5 M5.5,8h-5C0.2,8,0,8.2,0,8.5v5C0,13.8,0.2,14,0.5,14h5C5.8,14,6,13.8,6,13.5v-5
		C6,8.2,5.8,8,5.5,8L5.5,8z M11,7v3.5c0,0.3-0.2,0.5-0.5,0.5H7V7.5C7,7.2,6.8,7,6.5,7H3V3.5C3,3.2,3.2,3,3.5,3H7v3.5
		C7,6.8,7.2,7,7.5,7H11z"/>
</svg>
