<?xml version="1.0" encoding="utf-8"?>
<svg version="1.1" xmlns="http://www.w3.org/2000/svg" xmlns:xlink="http://www.w3.org/1999/xlink"
	 xml:space="preserve"
	 id="icon-action-clone"
	 x="0px" y="0px"
	 width="17" height="14"
	 viewBox="0 0 17 14">
	<path d="M0,8.4h14.2V14H0V8.4z"/>
	<path d="M8.5,5.6h2.8V4.2H8.5V5.6z M2.8,2.8v2.8h4.2V4.2H4.2V2.8C4.2,2.8,2.8,2.8,2.8,2.8z M15.6,2.8v1.4h-2.8v1.4H17V2.8H15.6z
		 M2.8,1.4h1.4V0H2.8C2.8,0,2.8,1.4,2.8,1.4z M5.7,1.4h2.8V0H5.7L5.7,1.4L5.7,1.4z M9.9,1.4h2.8V0H9.9V1.4z M14.2,1.4H17V0h-2.8
		L14.2,1.4L14.2,1.4z"/>
</svg>
