<?xml version="1.0" encoding="utf-8"?>
<svg xmlns:xlink="http://www.w3.org/1999/xlink" version="1.1" xmlns="http://www.w3.org/2000/svg"
	xml:space="preserve"
	id="icon-break-symbol"
	x="0px" y="0px"
	width="14" height="14"
	viewBox="0 0 14 14">
	<path d="M0,4h1v2H0V4z M0,13h1v1H0V13z M0,10h1v2H0V10z M0,7h1v2H0V7z M9,0h2v1H9V0z M6,0h2v1H6V0z M3,0h2v1H3V0z M13,3h1v2h-1V3z
		M12,0v1h1v1h1V0H12z M2,0H0v1v2h1V1h1V0z M2,13h2v1H2V13z M11,7H8V6H5v3h1v2H5v3h3v-1h3v1h3v-3h-1V9h1V6h-3V7z M6,7h1v1H6V7z M7,13
		H6v-1h1V13z M13,13h-1v-1h1V13z M12,7h1v1h-1V7z M12,11h-1v1H8v-1H7V9h1V8h3v1h1V11z" />
</svg>
