<?xml version="1.0" encoding="utf-8"?>
<svg version="1.1" xmlns="http://www.w3.org/2000/svg" xmlns:xlink="http://www.w3.org/1999/xlink"
	 xml:space="preserve"
	 id="icon-arrange-vertical-center"
	 x="0px" y="0px"
	 width="9" height="14"
	 viewBox="0 0 9 14">
	<path d="M8.5,2H5V0H4v2H0.5C0.2,2,0,2.2,0,2.5v3C0,5.8,0.2,6,0.5,6H4v2H2.5C2.2,8,2,8.2,2,8.5v3
	C2,11.8,2.2,12,2.5,12H4v2h1v-2h1.5C6.8,12,7,11.8,7,11.5v-3C7,8.2,6.8,8,6.5,8H5V6h3.5C8.8,6,9,5.8,9,5.5v-3C9,2.2,8.8,2,8.5,2z
	 M8,5H1V3h7V5z"/>
</svg>
