<?xml version="1.0" encoding="utf-8"?>
<svg version="1.1" xmlns="http://www.w3.org/2000/svg" xmlns:xlink="http://www.w3.org/1999/xlink"
	 xml:space="preserve"
	 id="icon-arrange-left"
	 x="0px" y="0px"
	 width="12" height="14"
	 viewBox="0 0 12 14">
	<path d="M1,14H0V0h1V14z M11,3H4v2h7V3 M11.5,2C11.8,2,12,2.2,12,2.5v3C12,5.8,11.8,6,11.5,6h-8
	C3.2,6,3,5.8,3,5.5v-3C3,2.2,3.2,2,3.5,2H11.5L11.5,2z M7,8.5C7,8.2,6.8,8,6.5,8h-3C3.2,8,3,8.2,3,8.5v3C3,11.8,3.2,12,3.5,12h3
	C6.8,12,7,11.8,7,11.5V8.5z"/>
</svg>
