<?xml version="1.0" encoding="utf-8"?>
<svg version="1.1" xmlns="http://www.w3.org/2000/svg" xmlns:xlink="http://www.w3.org/1999/xlink"
	 xml:space="preserve"
	 id="icon-arrange-bottom"
	 x="0px" y="0px"
	 width="14" height="14"
	 viewBox="0 0 14 14">
	<path d="M14,12v1H0v-1H14z M3,2v7h2V2H3 M2,1.5C2,1.2,2.2,1,2.5,1h3C5.8,1,6,1.2,6,1.5v8C6,9.8,5.8,10,5.5,10h-3C2.2,10,2,9.8,2,9.5
		V1.5L2,1.5z M8.5,6C8.2,6,8,6.2,8,6.5v3C8,9.8,8.2,10,8.5,10h3c0.3,0,0.5-0.2,0.5-0.5v-3C12,6.2,11.8,6,11.5,6H8.5z"/>
</svg>
