<?xml version="1.0" encoding="utf-8"?>
<svg version="1.1" xmlns="http://www.w3.org/2000/svg" xmlns:xlink="http://www.w3.org/1999/xlink"
	 xml:space="preserve"
	 id="icon-archive-archive"
	 x="0px" y="0px"
	 width="14" height="14"
	 viewBox="0 0 14 14">
	<polygon points="6.6,5 6.6,7 4.6,7 7.1,11 9.6,7 7.6,7 7.6,5 "/>
	<path d="M13.5,2H7V0.5C7,0.2,6.8,0,6.5,0h-6C0.2,0,0,0.2,0,0.5v2l0,0v11C0,13.8,0.2,14,0.5,14h13c0.3,0,0.5-0.2,0.5-0.5v-11
		C14,2.2,13.8,2,13.5,2z M13,13H1V3h5.5l0,0H13V13z"/>
</svg>
