<?xml version="1.0" encoding="utf-8"?>
<svg version="1.1" xmlns="http://www.w3.org/2000/svg" xmlns:xlink="http://www.w3.org/1999/xlink"
	 xml:space="preserve"
	 id="icon-arrow-show-horizontal"
	 x="0px" y="0px"
 	 width="14" height="14"
	 viewBox="0 0 14 14">
	<path d="M5.6,10.7c0.3,0.3,0.3,0.8,0,1.1s-0.8,0.3-1.1,0L0.2,7.5c-0.3-0.3-0.3-0.8,0-1.1l4.4-4.2c0.3-0.3,0.8-0.3,1.1,0
		C6,2.5,6,3,5.7,3.3L2.1,7L5.6,10.7z"/>
	<path d="M8.4,3.3C8.1,3,8.1,2.5,8.4,2.2c0.3-0.3,0.8-0.3,1.1,0l4.3,4.3c0.3,0.3,0.3,0.8,0,1.1l-4.3,4.2c-0.3,0.3-0.8,0.3-1.1,0
		s-0.3-0.8,0-1.1L11.9,7L8.4,3.3z"/>
</svg>
