<?xml version="1.0" encoding="utf-8"?>
<svg version="1.1" xmlns="http://www.w3.org/2000/svg" xmlns:xlink="http://www.w3.org/1999/xlink"
	 xml:space="preserve"
	 id="icon-arrow-enter"
	 x="0px" y="0px"
	 width="14" height="14"
	 viewBox="0 0 14 14">
	<path d="M13.2,1c-0.6,0-1,0.4-1,1v4.5H2.9l2-2.1c0.3-0.4,0.3-1,0-1.2c-0.3-0.4-0.8-0.4-1.3,0L0.1,6.9C0,7.1,0,7.1,0,7.2
		c0,0,0,0.4,0,0.6S0.1,8,0.1,8l3.5,3.7C3.9,12,4.2,12,4.3,12c0.3,0,0.4-0.1,0.6-0.3c0.3-0.4,0.3-1,0-1.2l-2-2.2H13c0.6,0,1-0.4,1-0.8
		V2C14,1.4,13.6,1,13.2,1z"/>
</svg>
