<?xml version="1.0" encoding="utf-8"?>
<svg version="1.1" xmlns="http://www.w3.org/2000/svg" xmlns:xlink="http://www.w3.org/1999/xlink"
	 xml:space="preserve"
	 id="icon-brand-google-simple"
	 x="0px" y="0px"
	 width="14" height="14"
	 viewBox="0 0 14 14">
	<path d="M7.1,8.3V5.7h6.7C13.9,6.2,14,6.7,14,7.2c0,4-2.7,6.8-6.9,6.8C3.2,14,0,10.9,0,7s3.2-7,7.1-7c0,0,0,0,0.1,0
		c1.8,0,3.5,0.7,4.7,1.8l-2,1.9c-0.7-0.6-1.7-1-2.7-1c0,0,0,0-0.1,0C4.8,2.9,3,4.7,3,7s1.8,4.1,4.1,4.3c0.1,0,0.2,0,0.3,0
		c1.8,0,3.3-1.3,3.6-2.9L7.1,8.3L7.1,8.3z"/>
</svg>
