<?xml version="1.0" encoding="utf-8"?>
<svg version="1.1" xmlns="http://www.w3.org/2000/svg" xmlns:xlink="http://www.w3.org/1999/xlink"
	 xml:space="preserve"
	 id="icon-brand-sketch"
	 x="0px" y="0px"
	 width="15" height="14"
	 viewBox="0 0 15 14">
	<path d="M7.4,14c-0.1,0-0.3-0.1-0.4-0.2L0,4.6V4.1h0.1l2.7-3.9l0.1-0.1C2.8,0.1,2.9,0,3,0h0h9c0,0,0,0,0,0c0.1,0,0.2,0.1,0.2,0.2
		L14.9,4C15,4,15,4.1,15,4.2v0v0.1c0,0,0,0,0,0c0,0.1-0.1,0.2-0.1,0.2v0.1l-7.1,9.2C7.7,13.9,7.6,14,7.4,14L7.4,14z M7.5,11.7
		l2.2-6.9H5.3L7.5,11.7z M8.7,11.2l4.8-6.3h-2.8L8.7,11.2z M6.3,11.2L4.3,4.8H1.5L6.3,11.2z M13.6,3.9L12,1.5l-0.9,2.4H13.6z
		 M9.4,3.9L7.5,1.3L5.6,3.9H9.4z M3.9,3.9L3,1.5L1.4,3.9H3.9z M4.8,3.3l1.8-2.4H3.8L4.8,3.3z M10.3,3.3l0.9-2.4H8.4L10.3,3.3z"/>
</svg>
