<?xml version="1.0" encoding="utf-8"?>
<svg version="1.1" xmlns="http://www.w3.org/2000/svg" xmlns:xlink="http://www.w3.org/1999/xlink"
	 xml:space="preserve"
	 id="icon-uxpin-logo"
	 x="0px" y="0px"
	 width="34" height="14"
	 viewBox="0 0 34 14">
	<path d="M0.4,12.6c0.2,0.4,0.5,0.8,1,1C2,13.9,2.6,14,3.5,14c0.6,0,1.1-0.1,1.5-0.2c0.4-0.1,0.8-0.3,1-0.6c0.3-0.2,0.5-0.5,0.6-0.8
		c0.1-0.3,0.2-0.7,0.3-0.9C7,11.1,7,10.7,7,10.4c0-0.3,0-0.6,0-0.9V0H5.5v9.6c0,1.1-0.1,1.9-0.4,2.3c-0.3,0.4-0.8,0.7-1.6,0.7
		c-0.5,0-0.8-0.1-1.1-0.2C2.2,12.2,2,12,1.8,11.7c-0.1-0.3-0.2-0.6-0.2-1c0-0.4,0-0.8,0-1.2V0H0v9.5c0,0.5,0,1,0.1,1.5
		C0.1,11.7,0.2,12.1,0.4,12.6z"/>
	<polygon points="9.7,13.8 11.9,8.1 14.1,13.8 15.9,13.8 12.8,6.4 15.5,0.1 14,0.1 12,5 10.2,0.1 8.5,0.1 11.1,6.6 8.1,13.8 "/>
	<path d="M18.8,8.2h1.4c0.7,0,1.3-0.1,1.8-0.3c0.5-0.2,0.9-0.5,1.2-0.9c0.3-0.4,0.5-0.8,0.7-1.3c0.1-0.5,0.2-1,0.2-1.5
		c0-0.4,0-0.8-0.1-1.1c-0.1-0.3-0.1-0.6-0.2-0.8c-0.1-0.2-0.2-0.4-0.3-0.6c-0.1-0.2-0.2-0.3-0.3-0.4c-0.4-0.4-0.8-0.8-1.3-0.9
		c-0.5-0.1-1.1-0.2-1.9-0.2h-2.7v13.7h1.6V8.2L18.8,8.2z M18.8,1.4H20c0.2,0,0.4,0,0.7,0c0.3,0,0.5,0.1,0.8,0.3
		c0.2,0.2,0.5,0.4,0.7,0.8c0.2,0.4,0.3,0.9,0.3,1.6c0,0.5-0.1,1-0.2,1.4c-0.1,0.3-0.3,0.6-0.5,0.8c-0.2,0.2-0.4,0.3-0.7,0.4
		c-0.3,0-0.6,0.1-0.9,0.1h-1.3L18.8,1.4L18.8,1.4z"/>
	<rect x="25.2" y="3.7" width="1.4" height="10.1"/>
	<rect x="25.2" y="0.1" width="1.6" height="1.7"/>
	<path d="M29.7,7.9c0-0.3,0-0.7,0-1c0-0.4,0.1-0.7,0.2-1c0.1-0.3,0.3-0.6,0.5-0.8c0.2-0.2,0.5-0.3,0.9-0.3c0.3,0,0.5,0.1,0.7,0.2
		c0.2,0.2,0.3,0.4,0.4,0.6s0.1,0.5,0.1,0.9c0,0.3,0,0.6,0,0.9v6.4H34V7.3c0-0.6,0-1.1,0-1.6c0-0.5-0.1-0.9-0.3-1.3
		c-0.2-0.3-0.4-0.6-0.7-0.8c-0.3-0.2-0.7-0.3-1.1-0.3c-0.4,0-0.7,0.1-1,0.2c-0.3,0.1-0.5,0.3-0.7,0.5c-0.2,0.2-0.3,0.4-0.4,0.6
		c-0.1,0.2-0.2,0.3-0.2,0.5V3.7h-1.3v10.1h1.4L29.7,7.9L29.7,7.9L29.7,7.9z"/>
</svg>