<?xml version="1.0" encoding="utf-8"?>
<svg version="1.1" xmlns="http://www.w3.org/2000/svg" xmlns:xlink="http://www.w3.org/1999/xlink"
	 xml:space="preserve"
	 id="icon-brand-google"
	 x="0px" y="0px"
	 width="44" height="14"
	 viewBox="0 0 44 14">
	<path d="M10.9,4.9H5.8v1.4h3.5c0,2.1-1.9,3-3.5,3c-2.3,0-3.9-1.6-3.9-4l0,0c0-2.3,1.9-4,3.9-4c0.9,0,2.1,0.5,2.8,1.2l1.2-1.2
		c0,0-1.4-1.4-3.9-1.4C2.5,0,0,2.6,0,5.4c0,3,2.5,5.4,5.8,5.4c3,0,5.1-2.1,5.1-4.9C10.9,5.6,10.9,5.4,10.9,4.9L10.9,4.9L10.9,4.9z"/>
	<path d="M15.1,4c-1.9,0-3.5,1.4-3.7,3.5l0,0c0,1.9,1.4,3.5,3.7,3.5c1.9-0.2,3.5-1.6,3.5-3.5C18.5,5.1,16.7,4,15.1,4L15.1,4L15.1,4z
		 M15.1,5.1c0.9,0,2.1,0.9,2.1,2.1s-0.9,2.1-2.1,2.1C13.9,9.6,13,8.6,13,7.5C13,6.1,13.9,5.1,15.1,5.1L15.1,5.1z"/>
	<path d="M22.9,4c-2.1-0.2-3.7,1.4-3.7,3.3l0,0c0,2.1,1.6,3.5,3.7,3.5c1.9,0,3.5-1.4,3.5-3.5S24.5,4,22.9,4L22.9,4L22.9,4z M22.9,5.1
		c0.9,0,2.1,0.9,2.1,2.1s-0.9,2.1-2.1,2.1c-1.2,0.2-2.1-0.7-2.1-1.9C20.8,6.1,21.8,5.1,22.9,5.1L22.9,5.1z"/>
	<path d="M30.6,4c-1.9,0-3.5,1.6-3.5,3.5c0,2.1,1.9,3.5,3.5,3.5c0.9,0,1.6-0.5,2.1-0.9v0.7c0,1.2-0.7,1.9-1.9,1.9
		c-1.2,0-1.6-0.7-1.9-1.2l-1.4,0.5c0.5,1.2,1.4,2.1,3,2.1c1.9,0,3.5-1.2,3.5-3.7V4.2h-1.6v0.5C32,4.2,31.3,4,30.6,4L30.6,4L30.6,4z
		 M30.8,5.1c0.9,0,1.9,0.7,1.9,2.1s-0.9,2.1-1.9,2.1c-0.9,0-2.1-0.7-2.1-2.1C28.7,6.1,29.6,5.1,30.8,5.1L30.8,5.1L30.8,5.1z"/>
	<path d="M40.8,4c-1.9,0-3.5,1.4-3.5,3.5s1.6,3.5,3.5,3.5c1.6,0,2.5-0.7,3-1.6l-1.2-0.7c-0.2,0.5-0.9,0.9-1.9,0.9s-1.4-0.5-1.9-1.2
		L44,6.5l-0.2-0.5C43.3,4.9,42.1,4,40.8,4L40.8,4L40.8,4z M40.8,5.1c0.7,0,1.2,0.2,1.4,0.7l-3.2,1.4C38.9,6.3,39.8,5.1,40.8,5.1
		L40.8,5.1L40.8,5.1z"/>
	<path d="M35.2,10.7h1.6V0.5h-1.6V10.7z"/>
</svg>
