<?xml version="1.0" encoding="utf-8"?>
<svg version="1.1" xmlns="http://www.w3.org/2000/svg" xmlns:xlink="http://www.w3.org/1999/xlink"
	 xml:space="preserve"
	 id="icon-brand-apple"
	 x="0px" y="0px"
	 width="12" height="14"
	 viewBox="0 0 12 14">
	<path d="M11.8,10.9c-0.2,0.5-0.5,0.9-0.8,1.4c-0.4,0.6-0.7,1-1,1.2C9.6,13.8,9.2,14,8.7,14c-0.3,0-0.7-0.1-1.2-0.3s-0.9-0.3-1.3-0.3
		c-0.4,0-0.8,0.1-1.3,0.3C4.5,13.9,4.2,14,3.9,14c-0.4,0-0.9-0.2-1.3-0.6c-0.3-0.2-0.6-0.6-1-1.2c-0.4-0.6-0.8-1.3-1.1-2.1
		C0.1,9.2,0,8.4,0,7.5c0-0.9,0.2-1.7,0.6-2.4c0.3-0.5,0.8-1,1.3-1.3C2.5,3.5,3,3.4,3.7,3.3C4,3.3,4.5,3.5,5,3.7S5.9,4,6.1,4
		c0.1,0,0.5-0.1,1.2-0.4c0.6-0.2,1.2-0.3,1.6-0.3c1.2,0.1,2.1,0.6,2.7,1.4C10.5,5.4,10,6.3,10,7.4c0,0.9,0.3,1.6,1,2.2
		c0.3,0.3,0.6,0.5,1,0.6C11.9,10.5,11.9,10.7,11.8,10.9L11.8,10.9z M9,0.3c0,0.7-0.3,1.4-0.8,2C7.6,3,6.8,3.4,6,3.3C6,3.2,6,3.1,6,3
		c0-0.7,0.3-1.4,0.8-2c0.3-0.3,0.6-0.5,1-0.7C8.2,0.1,8.6,0,9,0C9,0.1,9,0.2,9,0.3L9,0.3z"/>
</svg>
