<?xml version="1.0" encoding="utf-8"?>
<svg version="1.1" xmlns="http://www.w3.org/2000/svg" xmlns:xlink="http://www.w3.org/1999/xlink"
	 xml:space="preserve"
	 id="icon-code-block"
	 x="0px" y="0px"
	 width="16" height="14"
	 viewBox="0 0 16 14">
	<path d="M15.8,6.5l-3.1-3.1c-0.3-0.3-0.8-0.3-1.1,0c-0.3,0.3-0.3,0.8,0,1.1L14.1,7l-2.5,2.6c-0.3,0.3-0.3,0.8,0,1.1
		c0.2,0.2,0.8,0.3,1.1,0l3.1-3.1C16.1,7.3,16.1,6.8,15.8,6.5L15.8,6.5z"/>
	<path d="M4.4,3.3C4.1,3,3.6,3,3.3,3.3L0.2,6.5c-0.3,0.3-0.3,0.8,0,1.1l3.1,3.1c0.3,0.3,0.9,0.2,1.1,0c0.3-0.3,0.3-0.8,0-1.1L1.9,7
		l2.6-2.6C4.7,4.1,4.7,3.7,4.4,3.3z"/>
	<path d="M10.2,0c-0.4-0.1-0.8,0.1-1,0.5L5.3,13c-0.1,0.4,0.1,0.9,0.5,1c0.4,0.1,0.9-0.2,1-0.5L10.7,1C10.8,0.6,10.6,0.2,10.2,0
		L10.2,0z"/>
</svg>
