<?xml version="1.0" encoding="utf-8"?>
<svg version="1.1" xmlns="http://www.w3.org/2000/svg" xmlns:xlink="http://www.w3.org/1999/xlink"
	 xml:space="preserve"
	 id="icon-colors-dropper"
	 x="0px" y="0px"
	 width="12" height="14"
	 viewBox="0 0 12 14">
	<path d="M5.2,9H3.7l2.1-2.7L5,5.5l-4.3,5.1c-0.7,0.8-0.1,1.3-0.6,2.3C0,13.1,0,13.2,0,13.3C0,13.7,0.3,14,0.6,14
		C0.7,14,0.9,14,1,13.9c0.9-0.8,1.4-0.1,2.1-1l4.3-5.1L6.6,7.1L5.2,9z M9.7,5.2C9.3,5.6,9.3,6.4,9.7,6.8L9,7.7L5,3.8l0.7-0.9
		c0.4,0.4,1.1,0.4,1.5-0.1l1.9-2.2C9.5,0.2,9.9,0,10.4,0C11.3,0,12,0.8,12,1.8c0,0.4-0.2,0.8-0.4,1.2L9.7,5.2z"/>
</svg>
