<?xml version="1.0" encoding="utf-8"?>
<svg version="1.1" xmlns="http://www.w3.org/2000/svg" xmlns:xlink="http://www.w3.org/1999/xlink"
	 xml:space="preserve"
	 id="icon-color-drop"
	 x="0px" y="0px"
	 width="8" height="14"
	 viewBox="0 0 8 14">
	<path d="M4,2.6c0.3,0.5,0.6,1.1,0.9,1.7C5.9,6.2,7,8.4,7,9.6C7,11.5,5.7,13,4,13s-3-1.5-3-3.4
		c0-1.2,1.1-3.4,2.1-5.3C3.4,3.7,3.7,3.1,4,2.6 M4,0C3.2,2.6,0,7.2,0,9.6S1.8,14,4,14s4-2,4-4.4S4.8,2.6,4,0L4,0z M4.5,9
		c0,0.6-0.4,1-1,1c0,0.6,0.4,1,1,1s1-0.5,1-1C5.5,9.4,5.1,9,4.5,9z"/>
</svg>
