<?xml version="1.0" encoding="utf-8"?>
<svg version="1.1" xmlns="http://www.w3.org/2000/svg" xmlns:xlink="http://www.w3.org/1999/xlink"
	 xml:space="preserve"
	 id="icon-connection-disconnected"
	 x="0px" y="0px"
	 width="14" height="14"
	 viewBox="0 0 14 14">
	<path d="M13.3,14l-3.6-3.6c-1,0.6-2.3,0.5-3.1-0.3l3.5-3.5c0.9,0.9,1,2.2,0.3,3.1l3.6,3.6L13.3,14z M7.1,6.4
		l0.7-0.7L6.7,4.6l0.7-0.7C6.6,3,5.3,2.9,4.3,3.6L0.7,0L0,0.7l3.6,3.6C2.9,5.3,3,6.6,3.9,7.4l0.7-0.7l1.1,1.1l0.7-0.7L5.3,6L6,5.3
		L7.1,6.4z"/>
</svg>
