<?xml version="1.0" encoding="utf-8"?>
<svg version="1.1" xmlns="http://www.w3.org/2000/svg" xmlns:xlink="http://www.w3.org/1999/xlink"
	xml:space="preserve"
	id="icon-elements-symbol"
	x="0px" y="0px"
	width="14" height="14"
	viewBox="0 0 14 14">
	<path d="M12,2.9L7.5,0.3c-0.6-0.4-1.4-0.4-2,0L1,2.9c-0.6,0.4-1,1-1,1.7v4.8c0,0.7,0.4,1.4,1,1.7l4.5,2.6c0.6,0.4,1.4,0.4,2,0
		l4.5-2.6c0.6-0.4,1-1,1-1.7V4.6C13,3.9,12.6,3.2,12,2.9z M4,6.7V10H3V6.3h0L5.3,4H4V3h3v3H6V4.7L4,6.7z M10,7.7L10,7.7L7.7,10H9v1
		H6V8h1v1.3l2-2V4h1V7.7z"/>
</svg>
