<?xml version="1.0" encoding="utf-8"?>
<svg version="1.1" xmlns="http://www.w3.org/2000/svg" xmlns:xlink="http://www.w3.org/1999/xlink"
	 xml:space="preserve"
	 id="elements-icon"
	 x="0px" y="0px"
	 width="12" height="14"
	 viewBox="0 0 12 14">
	<path d="M6,14c3.3,0,6-2.7,6-6C8.7,8,6,10.7,6,14z M1.7,6.2c0,0.9,0.7,1.7,1.7,1.7c0.4,0,0.7-0.1,0.9-0.3l0,0.1
    c0,0.9,0.7,1.7,1.7,1.7s1.7-0.7,1.7-1.7l0-0.1c0.3,0.2,0.6,0.3,0.9,0.3c0.9,0,1.7-0.7,1.7-1.7c0-0.7-0.4-1.2-1-1.5
    c0.6-0.3,1-0.8,1-1.5c0-0.9-0.7-1.7-1.7-1.7c-0.4,0-0.7,0.1-0.9,0.3l0-0.1C7.7,0.7,6.9,0,6,0S4.3,0.7,4.3,1.7l0,0.1
    C4.1,1.6,3.8,1.5,3.4,1.5c-0.9,0-1.7,0.7-1.7,1.7c0,0.7,0.4,1.2,1,1.5C2.1,4.9,1.7,5.5,1.7,6.2z M6,3c0.9,0,1.7,0.7,1.7,1.7
    S6.9,6.3,6,6.3S4.3,5.6,4.3,4.7S5.1,3,6,3z M0,8c0,3.3,2.7,6,6,6C6,10.7,3.3,8,0,8z"/>
</svg>
