<?xml version="1.0" encoding="utf-8"?>
<svg version="1.1" xmlns="http://www.w3.org/2000/svg" xmlns:xlink="http://www.w3.org/1999/xlink"
	 xml:space="preserve"
	 id="icon-layers"
	 x="0px" y="0px"
	 width="14" height="14"
	 viewBox="0 0 14 14">
	<path d="M7.1,9.9L7.1,9.9H6.9C7,9.9,7,9.9,7.1,9.9z M0.1,4.2L6.9,8C7,8,7,8,7.1,8l6.8-3.8c0.2-0.1,0.2-0.3,0-0.4
		L7.1,0C7,0,7,0,6.9,0L0.1,3.8C0,3.9,0,4.1,0.1,4.2z M13.9,6.8l-0.6-0.4L7.1,9.8c0,0,0,0-0.1,0v0.1H6.9c0,0,0,0-0.1,0l-6-3.5L0.1,6.8
		C0,6.9,0,7.1,0.1,7.2L6.9,11H7h0.1l6.8-3.8C14,7.1,14,6.9,13.9,6.8z M13.9,9.8l-0.6-0.4l-6.1,3.4c0,0,0,0-0.1,0H7H6.9c0,0,0,0-0.1,0
		l-6-3.4L0.1,9.8C0,9.9,0,10.1,0.1,10.2L6.9,14H7h0.1l6.8-3.8C14,10.1,14,9.9,13.9,9.8z"/>
</svg>
