<?xml version="1.0" encoding="utf-8"?>
<svg version="1.1" xmlns="http://www.w3.org/2000/svg" xmlns:xlink="http://www.w3.org/1999/xlink"
	 xml:space="preserve"
	 id="icon-responsive"
	 x="0px" y="0px"
	 width="15" height="14"
	 viewBox="0 0 15 14">
	<path d="M3.9,6.5H0.4C0.2,6.5,0,6.7,0,6.9v6.7C0,13.8,0.2,14,0.4,14h3.4c0.2,0,0.4-0.2,0.4-0.4V6.9C4.3,6.7,4.1,6.5,3.9,6.5
		 M2.1,12.8c-0.2,0-0.4-0.2-0.4-0.4c0-0.2,0.2-0.4,0.4-0.4s0.4,0.2,0.4,0.4C2.6,12.6,2.4,12.8,2.1,12.8"/>
	<path d="M14.5,0H0.5C0.2,0,0,0.2,0,0.4v5h1.1V1.1h12.9v7.5v1.1H5.4v1.1h1.1v2.2H5.4V14h4.3v-1.1H8.6v-2.2h5.9c0.3,0,0.5-0.2,0.5-0.5
		V8.6V0.4C15,0.2,14.8,0,14.5,0"/>
</svg>
