<?xml version="1.0" encoding="utf-8"?>
<svg version="1.1" xmlns="http://www.w3.org/2000/svg" xmlns:xlink="http://www.w3.org/1999/xlink"
	 xml:space="preserve"
	 id="icon-feature-comments"
	 x="0px" y="0px"
	 width="16" height="14"
	 viewBox="0 0 16 14">
	<path d="M15.4,0H0.6C0.2,0,0,0.2,0,0.6v9.3c0,0.3,0.2,0.6,0.6,0.6h9.7l3.4,3.5v-3.5h1.7c0.3,0,0.6-0.2,0.6-0.6V0.6
		C16,0.2,15.8,0,15.4,0z M14.9,9.3h-1.1h-1.1v1.2v0.7l-0.7-0.7l-1.1-1.2H9.1h-8V1.2h13.7V9.3z"/>
	<rect x="3.4" y="3.5" width="9.1" height="1.2"/>
	<rect x="3.4" y="5.8" width="9.1" height="1.2"/>
</svg>
