<?xml version="1.0" encoding="utf-8"?>
<svg version="1.1" xmlns="http://www.w3.org/2000/svg" xmlns:xlink="http://www.w3.org/1999/xlink"
	 xml:space="preserve"
	 id="icon-files-download"
	 x="0px" y="0px"
	 width="19" height="14"
	 viewBox="0 0 19 14">
	<path d="M9.4,7.3L9.4,7.3C9.2,7.3,9,7.5,9.1,7.7v3.9l-0.7-1c-0.2-0.1-0.3-0.2-0.5-0.1c-0.3,0.1-0.5,0.5-0.3,0.7l1.5,1.6
		c0.2,0.2,0.5,0.2,0.6,0l1.5-1.6c0.2-0.2,0.1-0.5,0-0.6c-0.2-0.2-0.5-0.1-0.6,0l-0.7,0.9V7.7C9.9,7.5,9.7,7.2,9.4,7.3L9.4,7.3z
		 M8.4,1C6.1,1,4.1,2.6,3.7,4.8C1.6,5,0,6.6,0,8.7s1.8,4,4.1,4h2.4c0.2,0,0.4-0.2,0.4-0.4s-0.2-0.4-0.4-0.4H4.1
		c-1.8,0-3.3-1.3-3.3-3.1S2.2,5.7,4,5.7c0.2,0,0.4-0.2,0.4-0.4C4.6,3.4,6.3,2,8.3,2c1.1,0,2,0.4,2.7,1.2c0.1,0.1,0.3,0.2,0.5,0.1
		C11.9,3,12.3,3,12.7,3c1.6,0,2.9,1.2,3,2.5c0,0.2,0.1,0.3,0.3,0.3c1.2,0.4,2.1,1.5,2.1,3c0,1.7-1.4,3.1-3.2,3.1h-2.4
		c-0.2,0-0.4,0.2-0.4,0.4s0.2,0.4,0.4,0.4h2.4c2.2,0,4.1-1.7,4.1-4c0-1.6-1-3-2.4-3.6C16.3,3.3,14.7,2,12.8,2c-0.4,0-0.8,0.1-1.2,0.2
		C10.7,1.5,9.6,1,8.4,1L8.4,1z"/>
</svg>
