<?xml version="1.0" encoding="utf-8"?>
<svg version="1.1" xmlns="http://www.w3.org/2000/svg" xmlns:xlink="http://www.w3.org/1999/xlink"
	 xml:space="preserve"
	 id="icon-settings-geneal"
	 x="0px" y="0px"
	 width="14" height="14"
	 viewBox="0 0 14 14">
	<path d="M14,7.9V6.1l-2.1-0.9c0-0.2-0.1-0.3-0.2-0.5l0.8-2.1l-1.2-1.2L9.2,2.3C9.1,2.2,8.9,2.1,8.8,2.1L7.9,0H6.1L5.2,2.1
		c-0.2,0-0.3,0.1-0.5,0.2L2.7,1.4L1.4,2.7l0.8,2.1c0,0.2-0.1,0.3-0.2,0.5L0,6.1v1.8l2.1,0.9c0,0.2,0.1,0.4,0.2,0.5l-0.8,2.1l1.2,1.2
		l2.1-0.8c0.2,0.1,0.3,0.1,0.5,0.2L6.1,14h1.8l0.9-2.1c0.2,0,0.4-0.1,0.5-0.2l2.1,0.8l1.2-1.2l-0.9-2.1c0.1-0.2,0.1-0.3,0.2-0.5
		L14,7.9z M7,9.6C5.6,9.6,4.4,8.4,4.4,7S5.6,4.4,7,4.4S9.6,5.6,9.6,7S8.4,9.6,7,9.6z"/>
</svg>
