<?xml version="1.0" encoding="utf-8"?>
<svg version="1.1" xmlns="http://www.w3.org/2000/svg" xmlns:xlink="http://www.w3.org/1999/xlink"
	 xml:space="preserve"
	 id="icon-heart"
	 x="0px" y="0px"
	 width="16" height="14"
	 viewBox="0 0 16 14">
	<path d="M11.9,1.2c0.8,0,1.5,0.4,2,0.8c0.6,0.6,0.9,1.4,0.9,2.3s-0.3,1.6-0.9,2.3L8,12.5L2.1,6.6
		C1.5,5.9,1.2,5.1,1.2,4.3S1.5,2.7,2.1,2c0.6-0.5,1.3-0.8,2-0.8s1.5,0.2,2,0.8l1,1L8,3.8L8.8,3l1-1.1C10.4,1.5,11.1,1.2,11.9,1.2
		 M11.9,0c-1,0-2,0.4-2.8,1.2L8,2.2L7,1.2C6.2,0.4,5.2,0,4.1,0s-2,0.4-2.8,1.2c-1.7,1.8-1.7,4.6,0,6.3L8,14l6.7-6.6
		c1.7-1.8,1.7-4.6,0-6.3C13.9,0.4,12.9,0,11.9,0L11.9,0z"/>
</svg>
