<?xml version="1.0" encoding="utf-8"?>
<svg version="1.1" xmlns="http://www.w3.org/2000/svg" xmlns:xlink="http://www.w3.org/1999/xlink"
	 xml:space="preserve"
	 id="icon-libraries-simple"
	 x="0px" y="0px"
	 width="14" height="14"
	 viewBox="0 0 14 14">
	<path d="M14,0.5C14,0.2,13.8,0,13.5,0h-13C0.2,0,0,0.2,0,0.5v13C0,13.8,0.2,14,0.5,14h13c0.3,0,0.5-0.2,0.5-0.5
		V0.5z M13,1v6H1V1H13z M1,13V8h12v5H1z M9,10.5C9,10.8,8.8,11,8.5,11h-3C5.2,11,5,10.8,5,10.5l0,0C5,10.2,5.2,10,5.5,10h3
		C8.8,10,9,10.2,9,10.5L9,10.5z"/>
</svg>
