<?xml version="1.0" encoding="utf-8"?>
<svg version="1.1" xmlns="http://www.w3.org/2000/svg" xmlns:xlink="http://www.w3.org/1999/xlink"
	 xml:space="preserve"
	 id="icon-action-break"
	 x="0px" y="0px"
	 width="13" height="14"
	 viewBox="0 0 14 14">
	<path d="M5.1,13.5l1.5-1.4l-0.7-0.7l-1.5,1.4L5.1,13.5z"/>
	<path d="M8.9,13.5l0.7-0.7l-1.5-1.4l-0.7,0.7L8.9,13.5z"/>
	<path d="M13,5.5v3H8v1h6v-5H8v1H13z"/>
	<path d="M0,8.5l0,1h6v-1H1v-3h5v-1H0l0,1L0,8.5z"/>
	<path d="M8.1,2.6l1.5-1.4L8.9,0.5L7.4,1.9L8.1,2.6z"/>
	<path d="M5.1,0.5L4.4,1.2l1.5,1.4l0.7-0.7L5.1,0.5z"/>
	<path d="M5,7.5v-1h4v1H5z"/>
</svg>
