<?xml version="1.0" encoding="utf-8"?>
<svg version="1.1" xmlns="http://www.w3.org/2000/svg" xmlns:xlink="http://www.w3.org/1999/xlink"
	xml:space="preserve"
	id="icon-opacity"
	x="0px" y="0px"
	width="14" height="14"
	viewBox="0 0 14 14">
	<path d="M3,1.5A1.5,1.5,0,1,1,1.5,0,1.5,1.5,0,0,1,3,1.5Zm7.5,4a1,1,0,1,1-1-1A1,1,0,0,1,10.5,5.5Zm3,7.5a.5.5,0,1,0,.5.5A.5.5,0,0,0,13.5,13Zm-.12-8.13a.63.63,0,0,0-.63.63A.63.63,0,0,0,14,5.5.63.63,0,0,0,13.38,4.87Zm0,4a.63.63,0,0,0-.63.63A.63.63,0,0,0,14,9.5.63.63,0,0,0,13.38,8.87Zm-3.88,0a.62.62,0,0,0-.62.63.61.61,0,0,0,.62.62.62.62,0,0,0,.63-.62A.63.63,0,0,0,9.5,8.87Zm0,3.88A.63.63,0,0,0,9.5,14a.63.63,0,1,0,0-1.25Zm-4,0A.63.63,0,0,0,5.5,14a.63.63,0,1,0,0-1.25Zm-3.79-6a1.23,1.23,0,0,1-1.45-1,1.25,1.25,0,0,1,1-1.46,1.23,1.23,0,0,1,1.45,1A1.25,1.25,0,0,1,1.71,6.73Zm4,0a1.25,1.25,0,1,1,1-1.46A1.25,1.25,0,0,1,5.73,6.73ZM1.5,10.5a1,1,0,1,1,1-1A1,1,0,0,1,1.5,10.5Zm4,0a1,1,0,1,1,1-1A1,1,0,0,1,5.5,10.5ZM2.25,13.25A.75.75,0,1,0,1.5,14,.76.76,0,0,0,2.25,13.25Zm4.48-12a1.23,1.23,0,0,1-1,1.45,1.25,1.25,0,0,1-1.46-1,1.23,1.23,0,0,1,1-1.45A1.25,1.25,0,0,1,6.73,1.29Zm3.77.21a1,1,0,1,1-1-1A1,1,0,0,1,10.5,1.5ZM13.25.75A.75.75,0,1,0,14,1.5.76.76,0,0,0,13.25.75Z"/>
</svg>
