<?xml version="1.0" encoding="utf-8"?>
<svg version="1.1" xmlns="http://www.w3.org/2000/svg" xmlns:xlink="http://www.w3.org/1999/xlink"
	 xml:space="preserve"
	 id="icon-pen-tool"
	 x="0px" y="0px"
	 width="9" height="14"
	 viewBox="0 0 9 14">
	<path d="M8.1,3.5L9,0H0l0.9,3.5h0.6l-1.1,6.9L4.5,14l4.1-3.6L7.5,3.5H8.1z M1.6,2.6L1.2,0.9h6.7L7.4,2.6H7.3H1.6L1.6,2.6z M4.1,7.4
		C4.1,7.2,4.2,7,4.5,7s0.4,0.2,0.4,0.4S4.8,7.9,4.5,7.9S4.1,7.7,4.1,7.4z M7.6,10.2l-2.6,2.3V8.7C5.5,8.5,5.8,8,5.8,7.4
		c0-0.7-0.6-1.3-1.3-1.3S3.2,6.7,3.2,7.4c0,0.6,0.4,1.1,0.9,1.2v3.8l-2.6-2.3l1-6.7h4.1L7.6,10.2z"/>
</svg>
