<?xml version="1.0" encoding="utf-8"?>
<svg version="1.1" xmlns="http://www.w3.org/2000/svg" xmlns:xlink="http://www.w3.org/1999/xlink"
     xml:space="preserve"
     id="icon-piggy-bank"
     x="0px" y="0px"
     width="14" height="14"
     viewBox="0 0 14 14">
    <path d="M9,6.5A.5.5,0,0,1,9.5,6a.5.5,0,0,1,0,1A.5.5,0,0,1,9,6.5ZM14,7v3H12.58A5,5,0,0,1,11,12v2H8V13H6v1H3V12A5,5,0,0,1,1.05,8.71,2.2,2.2,0,0,1,0,7V4A2.12,2.12,0,0,1,2,2H2V3H2A1.13,1.13,0,0,0,1,4V7a.73.73,0,0,0,.07.29A5,5,0,0,1,3.83,3.52,5.15,5.15,0,0,1,6,3H9.23A2.47,2.47,0,0,1,11.5,1.5H12V5h0V6l1,1ZM13,8h-.41L11,6.42v-1h0V2.59A1.53,1.53,0,0,0,10,4H6a3.92,3.92,0,0,0-1.46.29A4,4,0,0,0,3,10.61a3.82,3.82,0,0,0,1,.83V13H5V12H9v1h1V11.44A4.07,4.07,0,0,0,11.44,10a4.23,4.23,0,0,0,.42-1H13ZM6,1A1,1,0,0,1,7,2H8A2,2,0,0,0,4,2H5A1,1,0,0,1,6,1Z"/>
</svg>
