<?xml version="1.0" encoding="utf-8"?>
<svg version="1.1" xmlns="http://www.w3.org/2000/svg" xmlns:xlink="http://www.w3.org/1999/xlink"
     xml:space="preserve"
     id="icon-pin-map"
     x="0px" y="0px"
     width="10" height="14"
     viewBox="0 0 10 14">
     <path d="M5,4C4.4,4,4,4.4,4,5s0.4,1,1,1s1-0.4,1-1S5.6,4,5,4z M5,0C2.1,0.1-0.1,2.6,0,5.4c0,2,2.2,5.6,3.6,7.8
	c0.5,0.8,1.5,1,2.3,0.5c0.2-0.1,0.3-0.3,0.5-0.5C7.8,11,10,7.4,10,5.4C10.1,2.6,7.9,0.1,5,0z M5.5,12.7c-0.2,0.3-0.6,0.4-0.9,0.2
	c-0.1,0-0.1-0.1-0.2-0.2C2.3,9.4,1,6.7,1,5.4C0.9,3.1,2.7,1.1,5,1c2.3,0.1,4.1,2.1,4,4.4C9,6.7,7.7,9.4,5.5,12.7z"/>
</svg>
