<?xml version="1.0" encoding="utf-8"?>
<svg version="1.1" xmlns="http://www.w3.org/2000/svg" xmlns:xlink="http://www.w3.org/1999/xlink"
	 xml:space="preserve"
	 id="icon-shape-star"
	 x="0px" y="0px"
	 width="14" height="14"
	 viewBox="0 0 14 14">
	<path d="M7,2.4L8.3,5C8.4,5.3,8.7,5.5,9,5.6L11.9,6L9.8,8.2C9.6,8.5,9.5,8.8,9.5,9.1l0.5,3l-2.5-1.4
		c-0.2-0.1-0.3-0.1-0.5-0.1s-0.3,0-0.5,0.1L4,12.1l0.5-3c0.1-0.3,0-0.6-0.3-0.9L2.1,6L5,5.6C5.3,5.5,5.6,5.3,5.7,5L7,2.4 M7,0
		L4.8,4.6L0,5.3l3.5,3.6L2.7,14L7,11.6l4.3,2.4l-0.8-5.1L14,5.3L9.2,4.6L7,0L7,0z"/>
</svg>
