<?xml version="1.0" encoding="utf-8"?>
<svg version="1.1" xmlns="http://www.w3.org/2000/svg" xmlns:xlink="http://www.w3.org/1999/xlink"
	 xml:space="preserve"
	 id="icon-sound-mute"
	 x="0px" y="0px"
	 width="10" height="14"
	 viewBox="0 0 10 14">
	<path d="M9.9,11.5L0.5,2.1C0.4,2,0.2,2,0.1,2.1S0,2.4,0.1,2.5L2.6,5v2.6c0,1.3,1.1,2.3,2.3,2.3h0.3c0.6,0,1.2-0.3,1.6-0.7L7.5,10
		C6.9,10.7,6,11.1,5,11.1c-1.8,0-3.3-1.4-3.6-3.1c0-0.3-0.3-0.5-0.6-0.5c-0.4,0-0.7,0.3-0.6,0.7c0.3,2.1,2,3.8,4.1,4.1V14h1.3v-1.8
		c1.1-0.1,2-0.6,2.7-1.4L9.5,12c0.1,0.1,0.3,0.1,0.4,0C10,11.8,10,11.6,9.9,11.5L9.9,11.5z"/>
	<path d="M7.4,7.6V2.3c0-1.3-1-2.3-2.3-2.3H4.8C3.6,0,2.6,1.1,2.6,2.3v1l4.8,4.9C7.4,7.9,7.4,7.7,7.4,7.6L7.4,7.6z"/>
	<path d="M9.8,8.1c0-0.4-0.3-0.7-0.6-0.7c-0.3,0-0.5,0.2-0.6,0.5c0,0.4-0.1,0.7-0.3,1.1l0.9,0.9C9.4,9.4,9.7,8.7,9.8,8.1L9.8,8.1z"/>
</svg>
