<?xml version="1.0" encoding="utf-8"?>
<svg version="1.1" xmlns="http://www.w3.org/2000/svg" xmlns:xlink="http://www.w3.org/1999/xlink"
	 xml:space="preserve"
	 id="icon-sound-unmute"
	 x="0px" y="0px"
	 width="11" height="14"
	 viewBox="0 0 11 14">
	<path d="M6.3,14H4.7v-1.9C2.1,11.9,0,9.7,0,6.9l0,0l0,0c0-0.3,0.3-0.7,0.8-0.7s0.8,0.3,0.8,0.7l0,0
		c0,2.2,1.8,3.9,4,3.9s4-1.8,4-3.9l0,0c0-0.4,0.3-0.8,0.8-0.8S11,6.6,11,6.9l0,0l0,0c0,2.6-2.1,4.9-4.7,5.3V14 M5.5,9.7L5.5,9.7
		c-1.7,0-3-1.3-3-2.9v-4c0-1.5,1.3-2.9,3-2.9l0,0c1.7,0,3,1.3,3,2.9v3.9C8.5,8.4,7.2,9.7,5.5,9.7z"/>
</svg>
