<?xml version="1.0" encoding="utf-8"?>
<svg version="1.1" xmlns="http://www.w3.org/2000/svg" xmlns:xlink="http://www.w3.org/1999/xlink"
	 xml:space="preserve"
	 id="icon-status-waiting"
	 x="0px" y="0px"
	 width="14" height="14"
	 viewBox="0 0 14 14">
	<path d="M11.1,1.3c1.2,0.8,2.1,2,2.5,3.4l-0.9,0.4c-0.4-1.2-1.2-2.3-2.2-3L11.1,1.3z M13,6c0,1,0,0.8,0,1c0,1.4-0.5,2.7-1.3,3.8
		l0.8,0.6C13.4,10.2,14,8.6,14,7c0-0.2,0,0,0-1H13z M11.4,11.1C10.3,12.3,8.7,13,7,13c-3.3,0-6-2.7-6-6s2.7-6,6-6
		c0.5,0,1,0.1,1.5,0.2l0.2-1C8.1,0.1,7.6,0,7,0C3.1,0,0,3.1,0,7s3.1,7,7,7c2,0,3.8-0.8,5.1-2.2L11.4,11.1z"/>
	<path d="M9.1,6.2L7.5,8.1C7.3,8.3,7,8.4,6.8,8.2l-1.1-1l0.7-0.8L7,7l1.3-1.5L9.1,6.2z"/>
</svg>
