<?xml version="1.0" encoding="utf-8"?>
<svg version="1.1" xmlns="http://www.w3.org/2000/svg" xmlns:xlink="http://www.w3.org/1999/xlink"
	 xml:space="preserve"
	 id="stroke-point-disconnected"
	 x="0px" y="0px"
	 width="20" height="14"
	 viewBox="0 0 20 14">
	<path d="M20,12.5c-4.3,0-7.9-3.3-8.4-7.6c0.2-0.2,0.4-0.4,0.6-0.7L16.1,6c-0.3,1.1,0.4,2.2,1.5,2.4
		C18.6,8.7,19.7,8,19.9,7s-0.4-2.2-1.5-2.4c-0.7-0.2-1.5,0.1-1.9,0.6l-4.1-1.9c0-0.1,0-0.2,0-0.3c0-1.4-1.1-2.5-2.5-2.5
		S7.5,1.6,7.5,3c0,0.1,0,0.2,0,0.3l-4,1.9C2.7,4.3,1.5,4.3,0.6,5c-0.8,0.7-0.9,2-0.1,2.8s2,0.9,2.8,0.1C3.9,7.5,4.1,6.7,3.9,6
		l3.9-1.8C8,4.5,8.2,4.7,8.4,4.9C8,9.2,4.3,12.5,0,12.5v1c4.7,0,8.7-3.4,9.4-8.1C9.6,5.5,9.8,5.5,10,5.5c0.2,0,0.4,0,0.6-0.1
		c0.1,0.7,0.3,1.5,0.6,2.2l-5.9,5.9h1.4l5-5c0.3,0.6,0.7,1.2,1.2,1.7l-3.3,3.3H11l2.6-2.6c0.5,0.5,1,0.9,1.6,1.2l-1.4,1.4h1.4
		l0.9-0.9c1.2,0.6,2.6,0.9,3.9,0.9V12.5z M17.1,6c0.3-0.5,0.9-0.6,1.4-0.4C19,5.9,19.1,6.5,18.9,7c-0.3,0.5-0.9,0.6-1.4,0.4
		c0,0,0,0,0,0C17,7.1,16.9,6.5,17.1,6C17.1,6,17.1,6,17.1,6z M2.5,7.4C2,7.6,1.4,7.5,1.1,7c0,0,0,0,0,0C0.9,6.5,1,5.9,1.5,5.6
		C2,5.4,2.6,5.5,2.9,6C3.1,6.5,3,7.1,2.5,7.4C2.5,7.4,2.5,7.4,2.5,7.4z M10,4.5C9.2,4.5,8.5,3.8,8.5,3S9.2,1.5,10,1.5
		s1.5,0.7,1.5,1.5S10.8,4.5,10,4.5z"/>
</svg>
