<?xml version="1.0" encoding="utf-8"?>
<svg version="1.1" xmlns="http://www.w3.org/2000/svg" xmlns:xlink="http://www.w3.org/1999/xlink"
	 xml:space="preserve"
	 id="stroke-point-straight"
	 x="0px" y="0px"
	 width="20" height="14"
	 viewBox="0 0 20 14">
	<path d="M19.2,12.4L19.2,12.4l-0.7-0.7l0,0l-1.4-1.4l0,0l-0.7-0.7l0,0L15,8.2l0,0l-0.7-0.7l0,0l-1.4-1.4l0,0l-0.7-0.7
		l0,0L11.8,5c1-1,1-2.6,0-3.5s-2.6-1-3.5,0c-1,1-1,2.6,0,3.5L0,13.2h1.4l7.7-7.7c0.6,0.2,1.2,0.2,1.8,0l0.5,0.5l-7.2,7.2h1.4l6.5-6.5
		l1.4,1.5l-5.1,5h1.4l4.3-4.3l1.4,1.4l-2.9,2.9h1.4l2.2-2.2l1.2,1.2l0,0l0.2,0.2L17,13.2h1.4l0,0l0,0H20L19.2,12.4z M8.5,3.2
		c0-0.8,0.7-1.5,1.5-1.5s1.5,0.7,1.5,1.5S10.8,4.7,10,4.7S8.5,4.1,8.5,3.2z"/>
</svg>
