<?xml version="1.0" encoding="utf-8"?>
<svg version="1.1" xmlns="http://www.w3.org/2000/svg" xmlns:xlink="http://www.w3.org/1999/xlink"
	 xml:space="preserve"
	 id="icon-trash"
	 x="0px" y="0px"
	 width="10" height="14"
	 viewBox="0 0 10 14">
	<path d="M8.9,4l-1.2,9H2.2L1.1,4H8.9 M9.4,3H0.6C0.3,3,0,3.3,0,3.6l1.2,9.8c0,0.3,0.3,0.6,0.6,0.6H8
		c0.3,0,0.6-0.3,0.6-0.6L10,3.6C10,3.3,9.7,3,9.4,3L9.4,3z M9.5,1H6V0.5C6,0.2,5.8,0,5.5,0h-1C4.2,0,4,0.2,4,0.5V1H0.5
		C0.2,1,0,1.2,0,1.5S0.2,2,0.5,2h4h1h4C9.8,2,10,1.8,10,1.5S9.8,1,9.5,1z M4.5,6.5C4.5,6.2,4.3,6,4,6l0,0C3.8,6,3.5,6.2,3.5,6.5v4
		C3.5,10.8,3.8,11,4,11l0,0c0.3,0,0.5-0.2,0.5-0.5V6.5z M6.5,6.5C6.5,6.2,6.3,6,6,6l0,0C5.8,6,5.5,6.2,5.5,6.5v4
		C5.5,10.8,5.8,11,6,11l0,0c0.3,0,0.5-0.2,0.5-0.5V6.5z"/>
</svg>
