<?xml version="1.0" encoding="utf-8"?>
<svg version="1.1" xmlns="http://www.w3.org/2000/svg" xmlns:xlink="http://www.w3.org/1999/xlink"
	 xml:space="preserve"
	 id="icon-typography-font-size"
	 x="0px" y="0px"
	 width="19" height="14"
	 viewBox="0 0 19 14">
	<polygon points="0,7.2 2.7,7.2 2.7,14 4.1,14 4.1,7.2 6.8,7.2 3.4,1.6 "/>
	<path d="M18.9,0L19,3.2h-0.4c-0.1-0.6-0.2-1-0.3-1.2c-0.2-0.4-0.5-0.7-0.8-0.9c-0.3-0.2-0.8-0.3-1.3-0.3h-1.9v10.6
		c0,0.8,0.1,1.4,0.3,1.6c0.3,0.3,0.6,0.4,1.2,0.4h0.5v0.4h-5.7v-0.4h0.5c0.6,0,1-0.2,1.2-0.5c0.1-0.2,0.2-0.7,0.2-1.5V0.9h-1.6
		c-0.6,0-1.1,0-1.3,0.1C9,1.1,8.7,1.4,8.5,1.8C8.3,2.1,8.1,2.6,8.1,3.2H7.7L7.8,0H18.9z"/>
</svg>
