<?xml version="1.0" encoding="utf-8"?>
<svg version="1.1" xmlns="http://www.w3.org/2000/svg" xmlns:xlink="http://www.w3.org/1999/xlink"
	 xml:space="preserve"
	 id="icon-typography-strike"
	 x="0px" y="0px"
 	 width="12" height="14"
	 viewBox="0 0 12 14">
	<path d="M12,8.6h-0.9c-0.6-2-2.8-2.6-4.7-3c-1.6-0.4-3-0.8-3-1.8c0-1,0.9-1.7,2.3-1.7c1.4,0,2.9,0.5,3.9,1.5L11,1.9
		C9.7,0.7,8,0,5.9,0C3,0,1,1.7,1,4C1,6.8,3.6,7.5,5.8,8c0.7,0.2,1.4,0.4,2,0.6H0v0.4h8.4c0.3,0.3,0.5,0.6,0.5,1
		c0,0.9-0.8,1.8-2.7,1.8c-1.9,0-3.3-0.9-4.3-1.9l-1.3,1.8C1.8,13.1,3.6,14,6,14c3.6,0,5.2-1.9,5.2-4.2c0-0.3,0-0.5-0.1-0.8H12V8.6z"/>
</svg>
