<?xml version="1.0" encoding="utf-8"?>
<svg version="1.1" xmlns="http://www.w3.org/2000/svg" xmlns:xlink="http://www.w3.org/1999/xlink"
	 xml:space="preserve"
	 id="icon-visibility-visible-outline"
	 x="0px" y="0px"
	 width="15" height="14"
	 viewBox="0 0 15 14">
	<path d="M7.6,8.9c-1.1,0-2-0.9-2-2s0.9-2,2-2s2,0.9,2,2C9.6,8.1,8.7,8.9,7.6,8.9z M7.6,4.2C6,4.2,4.8,5.4,4.8,6.9S6,9.6,7.6,9.6
		s2.8-1.2,2.8-2.7C10.3,5.4,9.1,4.2,7.6,4.2z M7.5,10.7c-3.1,0-5.8-1.6-6.7-3.7c0.9-2.2,3.6-3.7,6.7-3.7s5.8,1.6,6.7,3.7
		C13.2,9.2,10.6,10.7,7.5,10.7z M14.9,6.9C14,4.3,11,2.5,7.5,2.5S1,4.3,0.1,6.9L0,7l0.1,0.2C1,9.7,4,11.5,7.5,11.5s6.5-1.8,7.4-4.4
		V6.9L14.9,6.9z"/>
</svg>
