<?xml version="1.0" encoding="utf-8"?>
<svg version="1.1" xmlns="http://www.w3.org/2000/svg" xmlns:xlink="http://www.w3.org/1999/xlink"
	 xml:space="preserve"
	 id="icon-arrange-vertical-middle"
	 x="0px" y="0px"
 	 width="14" height="14"
	 viewBox="0 0 14 14">
	<path d="M12,10.5V7h2V6h-2V2.5C12,2.2,11.8,2,11.5,2h-3C8.2,2,8,2.2,8,2.5V6H6V4.5C6,4.2,5.8,4,5.5,4h-3C2.2,4,2,4.2,2,4.5V6H0v1h2
		v1.5C2,8.8,2.2,9,2.5,9h3C5.8,9,6,8.8,6,8.5V7h2v3.5C8,10.8,8.2,11,8.5,11h3C11.8,11,12,10.8,12,10.5z M9,10V3h2v7H9z"/>
</svg>
