<?xml version="1.0" encoding="utf-8"?>
<svg version="1.1" xmlns="http://www.w3.org/2000/svg" xmlns:xlink="http://www.w3.org/1999/xlink"
	 xml:space="preserve"
	 id="icon-action-duplicate"
	 x="0px" y="0px"
	 width="13" height="14"
	 viewBox="0 0 13 14">
	<path d="M12,5v8H7V5H12 M12.5,4h-6C6.2,4,6,4.2,6,4.5v9C6,13.8,6.2,14,6.5,14h6c0.3,0,0.5-0.2,0.5-0.5v-9
		C13,4.2,12.8,4,12.5,4L12.5,4z M6.5,0h-6C0.2,0,0,0.2,0,0.5v9C0,9.8,0.2,10,0.5,10H5V9H1V1h5v2h1V0.5C7,0.2,6.8,0,6.5,0z M11,7H8v1
		h3V7z M11,9H8v1h3V9z M5,3H2v1h3V3z M5,5H2v1h3V5z"/>
</svg>
