<?xml version="1.0" encoding="utf-8"?>
<svg version="1.1" xmlns="http://www.w3.org/2000/svg" xmlns:xlink="http://www.w3.org/1999/xlink"
	 xml:space="preserve"
	 id="icon-distribute-horizontal"
	 x="0px" y="0px"
	 width="14" height="14"
	 viewBox="0 0 14 14">
	<path d="M5.5,1h3C8.8,1,9,1.2,9,1.5V3h5v1H9v1.5C9,5.7,8.8,6,8.5,6h-3C5.2,6,5,5.8,5,5.5V4H0V3h5V1.5C5,1.2,5.2,1,5.5,1L5.5,1z
		 M5.5,8h3C8.8,8,9,8.2,9,8.5V10h5v1H9v1.5C9,12.7,8.8,13,8.5,13h-3C5.2,13,5,12.8,5,12.5V11H0v-1h5V8.5C5,8.2,5.2,8,5.5,8L5.5,8z
		 M6,9v3h2V9H6z"/>
</svg>
