<?xml version="1.0" encoding="utf-8"?>
<svg version="1.1" xmlns="http://www.w3.org/2000/svg" xmlns:xlink="http://www.w3.org/1999/xlink"
	 xml:space="preserve"
	 id="icon-action-change-project-group"
	 x="0px" y="0px"
	 width="14" height="14"
	 viewBox="0 0 14 14">
	<path d="M10,1.5V5H9V2H3.6c0,0,0,0-0.1,0H1v6h2v1l0,0H0.5C0.2,9,0,8.8,0,8.5v-7l0,0v-1C0,0.2,0.2,0,0.5,0h3C3.8,0,4,0.2,4,0.5V1h5.5
		C9.8,1,10,1.2,10,1.5z M10,6L10,6L10,6L10,6z M14,6.5V10v1.4v1.4v0.6l0,0c0,0.3-0.2,0.5-0.5,0.5h-1.2h-1.4H9.5H8H4.5
		c-0.3,0.2-0.5,0-0.5-0.3v-3.5l0,0V9V8.5V7.1V6.5l0,0l0,0v-1C4,5.2,4.2,5,4.5,5h3C7.8,5,8,5.2,8,5.5V6h0.5H10l0,0h1h2.5
		C13.8,6,14,6.2,14,6.5z M7,13.1l-2-2v2H7z M9.9,13.1l-3-3l-1-1L5,8.1V9v0.5L5.5,10l3,3h1.4V13.1z M12.7,13.1l-3-3l-1-1l-2-2H5.3l2,2
		l1,1l3,3H12.7z M13,10.6l-2-2l-1-1L9.5,7H8.1L10,8.9l0.9,0.9L13,12V10.6z M13,7h-2l0,0l0,0l2,2V7z"/>
</svg>
