<?xml version="1.0" encoding="utf-8"?>
<svg version="1.1" xmlns="http://www.w3.org/2000/svg" xmlns:xlink="http://www.w3.org/1999/xlink"
	 xml:space="preserve"
	 id="icon-move-to-front"
	 x="0px" y="0px"
	 width="14" height="14"
	 viewBox="0 0 14 14">
	<path d="M11,10.5c0,0.3-0.2,0.5-0.5,0.5h-7C3.2,11,3,10.8,3,10.5v-7C3,3.2,3.2,3,3.5,3h7
		C10.8,3,11,3.2,11,3.5V10.5z M6,12v1H1V8h1V7H0.5C0.2,7,0,7.2,0,7.5v6C0,13.8,0.2,14,0.5,14h6C6.8,14,7,13.8,7,13.5V12H6z M13.5,0
		h-6C7.2,0,7,0.2,7,0.5V2h1V1h5v5h-1v1h1.5C13.8,7,14,6.8,14,6.5v-6C14,0.2,13.8,0,13.5,0z"/>
</svg>
