<?xml version="1.0" encoding="utf-8"?>
<svg version="1.1" xmlns="http://www.w3.org/2000/svg" xmlns:xlink="http://www.w3.org/1999/xlink"
	 xml:space="preserve"
	 id="icon-arrange-top"
	 x="0px" y="0px"
 	 width="14" height="14"
	 viewBox="0 0 14 14">
	<path d="M0,2V1h14v1H0z M3,5v7h2V5H3 M2,4.5C2,4.2,2.2,4,2.5,4h3C5.8,4,6,4.2,6,4.5v8C6,12.8,5.8,13,5.5,13h-3C2.2,13,2,12.8,2,12.5
		V4.5L2,4.5z M8.5,4C8.2,4,8,4.2,8,4.5v3C8,7.8,8.2,8,8.5,8h3C11.8,8,12,7.8,12,7.5v-3C12,4.2,11.8,4,11.5,4H8.5z"/>
</svg>
