<?xml version="1.0" encoding="utf-8"?>
<svg version="1.1" xmlns="http://www.w3.org/2000/svg" xmlns:xlink="http://www.w3.org/1999/xlink"
	 xml:space="preserve"
	 id="icon-distribute-vertical"
	 x="0px" y="0px"
 	 width="12" height="14"
	 viewBox="0 0 12 14">
	<path d="M12,5.5v3C12,8.8,11.8,9,11.5,9H10v5H9V9H7.5C7.3,9,7,8.8,7,8.5v-3C7,5.2,7.2,5,7.5,5H9V0h1v5h1.5C11.8,5,12,5.2,12,5.5
		L12,5.5z M5,5.5v3C5,8.8,4.8,9,4.5,9H3v5H2V9H0.5C0.3,9,0,8.8,0,8.5v-3C0,5.2,0.2,5,0.5,5H2V0h1v5h1.5C4.8,5,5,5.2,5,5.5L5,5.5z
		 M4,6H1v2h3V6z"/>
</svg>
