<?xml version="1.0" encoding="utf-8"?>
<svg version="1.1" xmlns="http://www.w3.org/2000/svg" xmlns:xlink="http://www.w3.org/1999/xlink"
	 xml:space="preserve"
	 id="icon-arrange-right"
	 x="0px" y="0px"
	 width="12" height="14"
	 viewBox="0 0 12 14">
	<path d="M11,0h1v14h-1V0z M8,3H1v2h7V3 M8.5,2C8.8,2,9,2.2,9,2.5v3C9,5.8,8.8,6,8.5,6h-8C0.2,6,0,5.8,0,5.5v-3
	C0,2.2,0.2,2,0.5,2H8.5L8.5,2z M9,8.5C9,8.2,8.8,8,8.5,8h-3C5.2,8,5,8.2,5,8.5v3C5,11.8,5.2,12,5.5,12h3C8.8,12,9,11.8,9,11.5V8.5z"
	/>
</svg>
