<?xml version="1.0" encoding="utf-8"?>
<svg version="1.1" xmlns="http://www.w3.org/2000/svg" xmlns:xlink="http://www.w3.org/1999/xlink"
	 xml:space="preserve"
	 id="icon-action-remove-from-group"
	 x="0px" y="0px"
	 width="14" height="14"
	 viewBox="0 0 14 14">
	<path d="M13.5,2H7V0.5C7,0.2,6.8,0,6.5,0h-6C0.2,0,0,0.2,0,0.5v2l0,0v11C0,13.8,0.2,14,0.5,14h13c0.3,0,0.5-0.2,0.5-0.5v-11
		C14,2.2,13.8,2,13.5,2z M13,13H1V3h5.5l0,0H13V13z"/>
	<path d="M4.1,5.1C4,5.2,4,5.4,4.1,5.5L6.6,8l-2.5,2.5c-0.1,0.1-0.1,0.3,0,0.4s0.3,0.1,0.4,0L7,8.4l2.5,2.5c0.1,0.1,0.3,0.1,0.4,0
		s0.1-0.3,0-0.4L7.4,8l2.5-2.5c0.1-0.1,0.1-0.3,0-0.4C9.8,5,9.6,5,9.5,5.1L7,7.6L4.5,5.1C4.4,5,4.2,5,4.1,5.1z"/>
</svg>
