<?xml version="1.0" encoding="utf-8"?>
<svg version="1.1" xmlns="http://www.w3.org/2000/svg" xmlns:xlink="http://www.w3.org/1999/xlink"
     xml:space="preserve"
     id="icon-advanced-animation"
     x="0px" y="0px"
     width="14" height="14"
     viewBox="0 0 14 14">
    <path d="M12,6a1,1,0,1,1-1,1,1,1,0,0,1,1-1m0-1a2,2,0,1,0,2,2,2,2,0,0,0-2-2ZM9,9a1,1,0,1,0,1,1A1,1,0,0,0,9,9ZM7,12a1,1,0,1,0,1,1A1,1,0,0,0,7,12ZM5,9a1,1,0,1,0,1,1A1,1,0,0,0,5,9ZM3,6A1,1,0,1,0,4,7,1,1,0,0,0,3,6ZM1,3A1,1,0,1,0,2,4,1,1,0,0,0,1,3Z"/>
</svg>
