<?xml version="1.0" encoding="utf-8"?>
<svg version="1.1" xmlns="http://www.w3.org/2000/svg" xmlns:xlink="http://www.w3.org/1999/xlink"
	 xml:space="preserve"
	 id="icon-arrow-retrieve"
	 x="0px" y="0px"
	 width="15" height="14"
	 viewBox="0 0 15 14">
	<path d="M8.1,8.2C7.4,8.2,6.9,7.7,6.9,7s0.5-1.2,1.2-1.2c0.7,0,1.2,0.5,1.2,1.2S8.8,8.2,8.1,8.2L8.1,8.2z M8.1,14
		c3.8,0,6.9-3.1,6.9-7s-3.1-7-6.9-7S1.2,3.5,1.2,7h1.2c0-3.5,2.5-5.8,5.8-5.8s5.8,2.7,5.8,5.8s-2.5,5.8-5.8,5.8L8.1,14L8.1,14z M0,7
		l1.7,3.5L3.5,7L0,7L0,7z"/>
</svg>
