<?xml version="1.0" encoding="utf-8"?>
<svg version="1.1" xmlns="http://www.w3.org/2000/svg" xmlns:xlink="http://www.w3.org/1999/xlink"
	 xml:space="preserve"
	 id="icon-arrow-show"
	 x="0px" y="0px"
	 width="10" height="14"
	 viewBox="0 0 10 14">
	<path d="M8.7,8.4c0.3-0.3,0.8-0.3,1.1,0c0.3,0.3,0.3,0.8,0,1.1l-4.3,4.3c-0.3,0.3-0.8,0.3-1.1,0L0.2,9.4c-0.3-0.3-0.3-0.8,0-1.1
	C0.5,8,1,8,1.3,8.3L5,11.9L8.7,8.4z"/>
	<path d="M1.3,5.6C1,5.9,0.5,5.9,0.2,5.6s-0.3-0.8,0-1.1l4.3-4.3c0.3-0.3,0.8-0.3,1.1,0l4.2,4.3c0.3,0.3,0.3,0.8,0,1.1S9,5.9,8.7,5.6
	L5,2.1L1.3,5.6z"/>
</svg>
