<?xml version="1.0" encoding="utf-8"?>
<svg version="1.1" xmlns="http://www.w3.org/2000/svg" xmlns:xlink="http://www.w3.org/1999/xlink"
	 xml:space="preserve"
	 id="icon-brand-typekit"
	 x="0px" y="0px"
	 width="14" height="14"
	 viewBox="0 0 14 14">
	<path d="M0,0v14h14V0H0L0,0z M0.6,0.6h12.8v12.8H0.6V0.6z"/>
	<path d="M4.2,4.7H2.6c-0.1,0-0.1,0-0.1-0.1l0.1-0.8c0-0.1,0-0.1,0.1-0.1h4c0.1,0,0.1,0,0.1,0.1l0.1,0.8c0,0.1,0,0.1-0.1,0.1H5.2v5.5
		c0,0,0,0.1,0,0.1c0,0,0,0,0,0H4.3c0,0-0.1,0-0.1,0c0,0,0,0,0,0V4.7L4.2,4.7z M8.6,7.5l1.5-2c0-0.1,0.1-0.1,0.1-0.1h1
		c0.1,0,0.1,0,0,0.1C11,5.8,9.9,7.1,9.6,7.6c0,0,0,0,0,0c0,0,0,0,0,0l1.9,2.5c0,0,0,0.1-0.1,0.1h-1.1c0,0-0.1,0-0.1-0.1
		C9.8,9.7,9,8.6,8.6,8v2.2c0,0,0,0.1,0,0.1c0,0,0,0,0,0H7.6c-0.1,0-0.1,0-0.1-0.1V3.8c0,0,0-0.1,0.1-0.1h0.9c0,0,0.1,0,0.1,0.1
		c0,0,0,0,0,0V7.5L8.6,7.5L8.6,7.5z"/>
</svg>
