<?xml version="1.0" encoding="utf-8"?>
<svg version="1.1" xmlns="http://www.w3.org/2000/svg" xmlns:xlink="http://www.w3.org/1999/xlink"
	 xml:space="preserve"
	 id="icon-brand-slack"
	 x="0px" y="0px"
	 width="14" height="14"
	 viewBox="0 0 14 14">
	<polygon points="5.8,6.4 6.4,8.2 8.2,7.6 7.6,5.8 "/>
	<path d="M13.4,5.1C12,0.3,9.9-0.9,5.1,0.6s-5.9,3.5-4.5,8.3s3.5,5.9,8.3,4.5S14.9,9.9,13.4,5.1z M11,8.2l-0.9,0.3l0.3,0.9
		c0.1,0.4-0.1,0.8-0.5,0.9c-0.1,0-0.2,0-0.2,0c-0.3,0-0.6-0.2-0.7-0.5L8.7,9L6.8,9.6l0.3,0.9c0.1,0.4-0.1,0.8-0.5,0.9
		c-0.1,0-0.2,0-0.2,0c-0.3,0-0.6-0.2-0.7-0.5L5.5,10l-0.9,0.3c-0.1,0-0.2,0-0.2,0c-0.3,0-0.6-0.2-0.7-0.5C3.5,9.5,3.7,9.1,4.1,9
		L5,8.7L4.4,6.9L3.5,7.2c-0.1,0-0.2,0-0.2,0C2.9,7.2,2.7,7,2.6,6.7C2.4,6.3,2.6,5.9,3,5.8l0.9-0.3L3.6,4.5C3.5,4.2,3.7,3.8,4.1,3.6
		C4.5,3.5,4.9,3.7,5,4.1L5.3,5l1.9-0.6L6.9,3.5C6.7,3.1,6.9,2.7,7.3,2.6C7.7,2.4,8.1,2.6,8.2,3L8.6,4l0.9-0.3
		c0.4-0.1,0.8,0.1,0.9,0.5c0.1,0.4-0.1,0.8-0.5,0.9L9,5.3l0.6,1.8l0.9-0.3c0.4-0.1,0.8,0.1,0.9,0.5C11.6,7.7,11.4,8.1,11,8.2L11,8.2z
		"/>
</svg>
