<?xml version="1.0" encoding="utf-8"?>
<svg version="1.1" xmlns="http://www.w3.org/2000/svg" xmlns:xlink="http://www.w3.org/1999/xlink"
	 xml:space="preserve"
	 id="icon-brand-twitter"
	 x="0px" y="0px"
	 width="17" height="14"
	 viewBox="0 0 17 14">
	<path d="M11.6,0c1.4,0,2.1,0.5,2.8,1.1c0.6-0.1,1.3-0.4,1.8-0.6c0.1-0.1,0.3-0.2,0.4-0.2c-0.3,0.7-0.6,1.2-1.1,1.7
		C15.3,2,15.2,2.1,15,2.2l0,0c0.7,0,1.4-0.4,2-0.5l0,0c-0.3,0.5-0.7,1-1.2,1.4c-0.2,0.1-0.4,0.3-0.6,0.4c0,0.8,0,1.6-0.2,2.3
		c-0.9,4-3.2,6.7-6.8,7.8c-1.3,0.4-3.4,0.6-4.9,0.2c-0.7-0.2-1.4-0.4-2-0.7c-0.3-0.2-0.7-0.3-1-0.5c-0.1,0-0.2-0.1-0.3-0.2
		c0.3,0,0.7,0.1,1.1,0.1c0.3-0.1,0.7-0.1,1-0.1c0.8-0.2,1.5-0.4,2.1-0.8c0.3-0.2,0.7-0.4,1-0.6c-0.4,0-0.7-0.1-1-0.2
		C3,10.4,2.3,9.7,1.9,8.5c0.3,0,1.3,0.1,1.6-0.1C3.1,8.4,2.6,8.2,2.3,8C1.4,7.4,0.7,6.5,0.7,5C0.8,5,0.9,5.1,1,5.1
		c0.2,0.1,0.5,0.2,0.7,0.2c0.1,0,0.3,0.1,0.5,0.1c0,0,0,0,0,0C2,5.2,1.8,5.1,1.6,4.8C1,4.1,0.5,2.9,0.8,1.6C0.9,1.2,1,0.9,1.2,0.7
		c0,0,0,0,0,0C1.3,0.8,1.4,0.9,1.5,1c0.3,0.4,0.7,0.7,1,1C3.8,3,5,3.7,6.8,4.1c0.5,0.1,1,0.2,1.6,0.2c-0.2-0.5-0.1-1.2,0-1.7
		c0.3-1.1,1-1.9,2-2.4c0.2-0.1,0.5-0.2,0.8-0.2C11.3,0,11.4,0,11.6,0z"/>
</svg>
