<?xml version="1.0" encoding="utf-8"?>
<svg version="1.1" xmlns="http://www.w3.org/2000/svg" xmlns:xlink="http://www.w3.org/1999/xlink"
	 xml:space="preserve"
	 id="icon-code-inline"
	 x="0px" y="0px"
	 width="15" height="14"
	 viewBox="0 0 15 14">
	<path d="M1.5,2.6v2.8c0,0.5-1,1.1-1.5,1.1v1.1c0.5-0.1,1.5,0.4,1.5,1v2.8C1.5,13,2.7,14,4,14h1v-1.4H4c-0.5,0-1.1-0.4-1.1-1.2v-3
		c0-0.8-0.2-1.3-0.6-1.4c0.5-0.2,0.6-0.9,0.6-1.4v-3C2.9,2,3.3,1.4,4,1.4h1V0H4C2.7,0,1.5,1,1.5,2.6z"/>
	<path d="M13.5,2.6v2.8c0,0.5,1,1.1,1.5,1.1v1.1c-0.5-0.1-1.5,0.4-1.5,1v2.8c0,1.6-1.2,2.6-2.5,2.6h-1v-1.4h1c0.5,0,1.1-0.4,1.1-1.2
		v-3c0-0.8,0.2-1.3,0.6-1.4c-0.5-0.2-0.6-0.9-0.6-1.4v-3c0-0.6-0.4-1.2-1.1-1.2h-0.9V0h1C12.3,0,13.5,1,13.5,2.6z"/>
</svg>
