<?xml version="1.0" encoding="utf-8"?>
<svg version="1.1" xmlns="http://www.w3.org/2000/svg" xmlns:xlink="http://www.w3.org/1999/xlink"
	 xml:space="preserve"
	 id="icon-colors-swatches"
	 x="0px" y="0px"
	 width="14" height="14"
	 viewBox="0 0 14 14">
	<path d="M6,6H0V0h6V6z M14,0v6H8V0H14z M13,1H9v4h4V1z M11.5,3L11.5,3c0-0.3-0.2-0.5-0.5-0.5l0,0
	c-0.3,0-0.5,0.2-0.5,0.5v0c0,0.3,0.2,0.5,0.5,0.5l0,0C11.3,3.5,11.5,3.3,11.5,3z M6,8l0,6l-6,0l0-6L6,8z M4.3,13L1,9.7L1,13L4.3,13z
	 M5,9L1.7,9L5,12.3L5,9z M14,8v6H8V8H14z M12.5,11c0-0.8-0.7-1.5-1.5-1.5S9.5,10.2,9.5,11s0.7,1.5,1.5,1.5
	C11.8,12.5,12.5,11.8,12.5,11z"/>
</svg>
