<?xml version="1.0" encoding="utf-8"?>
<svg version="1.1" xmlns="http://www.w3.org/2000/svg" xmlns:xlink="http://www.w3.org/1999/xlink"
	 xml:space="preserve"
	 id="icon-elements-image"
	 x="0px" y="0px"
	 width="14" height="14"
	 viewBox="0 0 14 14">
	<path id="img_2_" d="M9,4.5C9,3.7,9.7,3,10.5,3S12,3.7,12,4.5S11.3,6,10.5,6S9,5.3,9,4.5z M13,1v12H1V1H13 M13.5,0h-13
		C0.2,0,0,0.2,0,0.5v13C0,13.8,0.2,14,0.5,14h13c0.3,0,0.5-0.2,0.5-0.5v-13C14,0.2,13.8,0,13.5,0L13.5,0z M2,6.9L2.9,6l4.6,4.6l2-2
		L12,11v1H2V6.9z"/>
</svg>
