<?xml version="1.0" encoding="utf-8"?>
<svg version="1.1" xmlns="http://www.w3.org/2000/svg" xmlns:xlink="http://www.w3.org/1999/xlink"
	 xml:space="preserve"
	 id="icon-multistates"
	 x="0px" y="0px"
	 width="13" height="14"
	 viewBox="0 0 13 14">
	<path id="multistates_1_" d="M13,8.5C13,8.8,12.8,9,12.5,9h-3C9.2,9,9,8.8,9,8.5v-3C9,5.2,9.2,5,9.5,5h3C12.8,5,13,5.2,13,5.5V8.5z
		 M3,6H1v2h2V6 M3.5,5C3.8,5,4,5.2,4,5.5v3C4,8.8,3.8,9,3.5,9h-3C0.2,9,0,8.8,0,8.5v-3C0,5.2,0.2,5,0.5,5H3.5L3.5,5z M7,13.5v-13
		C7,0.2,6.8,0,6.5,0S6,0.2,6,0.5v13C6,13.8,6.2,14,6.5,14S7,13.8,7,13.5z"/>
</svg>
