<?xml version="1.0" encoding="utf-8"?>
<svg version="1.1" xmlns="http://www.w3.org/2000/svg" xmlns:xlink="http://www.w3.org/1999/xlink"
	xml:space="preserve"
	id="icon-elements-code-component"
	x="0px" y="0px"
	width="14" height="14"
	viewBox="0 0 14 14">
	<path d="M6,4H8V6H6Zm0,6H7v1H6v1H8V8H6ZM1.3.3a1.09,1.09,0,0,0-.3.78V5.85c0,.27-.12.4-.37.4H0v1.5H.63c.25,0,.37.13.37.4v4.77a1.09,1.09,0,0,0,.3.78,1,1,0,0,0,.77.3H3.41V13h-1c-.25,0-.38-.13-.38-.41V8.16a1.08,1.08,0,0,0-.29-.77A1,1,0,0,0,1,7.08H.84V6.92H1a1.07,1.07,0,0,0,.79-.31,1.08,1.08,0,0,0,.29-.77V1.41c0-.28.13-.41.38-.41h1V0H2.07A1,1,0,0,0,1.3.3Zm12.07,6c-.25,0-.37-.13-.37-.4V1.08A1.09,1.09,0,0,0,12.7.3a1,1,0,0,0-.77-.3H10.59V1h1c.25,0,.37.13.37.41V5.84a1,1,0,0,0,.3.77,1.06,1.06,0,0,0,.78.31h.17v.16H13a1,1,0,0,0-.78.31,1,1,0,0,0-.3.77v4.43c0,.28-.12.41-.37.41h-1v1h1.34a1,1,0,0,0,.77-.3,1.09,1.09,0,0,0,.3-.78V8.15c0-.27.12-.4.37-.4H14V6.25Z"/>
</svg>
