<?xml version="1.0" encoding="utf-8"?>
<svg version="1.1" xmlns="http://www.w3.org/2000/svg" xmlns:xlink="http://www.w3.org/1999/xlink"
	 xml:space="preserve"
	 id="icon-elements-ungrouping"
	 x="0px" y="0px"
	 width="14" height="14"
	 viewBox="0 0 14 14">
	<path d="M3,9h3v2H3V9z M8,3h3v4H8V3z M0,4h1v2H0V4z M0,13h1v1H0V13z M0,10h1v2H0V10z M0,7h1v2H0V7z M9,0h2v1H9V0z M6,0h2v1H6V0z
		M3,0h2v1H3V0z M13,6h1v2h-1V6z M13,13h-2v1h2h1v-2h-1V13z M13,3h1v2h-1V3z M13,9h1v2h-1V9z M12,0v1h1v1h1V0H12z M2,0H0v1v2h1V1h1V0
		z M2,13h2v1H2V13z M8,13h2v1H8V13z M5,13h2v1H5V13z" />
</svg>
