<?xml version="1.0" encoding="utf-8"?>
<svg version="1.1" xmlns="http://www.w3.org/2000/svg" xmlns:xlink="http://www.w3.org/1999/xlink"
	 xml:space="preserve"
	 id="icon-elements-multistates-edit"
	 x="0px" y="0px"
	 width="14" height="14"
	 viewBox="0 0 14 14">
	<path d="M4.5,12h-2C2.2,12,2,11.8,2,11.5v-2C2,9.2,2.2,9,2.5,9h2C4.8,9,5,9.2,5,9.5v2C5,11.8,4.8,12,4.5,12z M3,11h1v-1H3V11z"/>
	<path d="M11.5,5h-2C9.2,5,9,4.8,9,4.5v-2C9,2.2,9.2,2,9.5,2h2C11.8,2,12,2.2,12,2.5v2C12,4.8,11.8,5,11.5,5z"/>
	<path d="M11.5,12c-0.1,0-0.3,0-0.4-0.1l-9-9C2,2.7,2,2.4,2.2,2.2s0.5-0.2,0.7,0l9,9c0.2,0.2,0.2,0.5,0,0.7C11.8,12,11.7,12,11.5,12z
		"/>
	<path d="M14,0h-1v1l0,0v1h1V0L14,0z M12,0h-1v1h1V0L12,0z M10,0H9v1h1V0L10,0z M8,0H7v1h1V0L8,0z M6,0H5v1h1V0L6,0z M4,0H3v1h1V0
		L4,0z M2,0H0v1h1l0,0h1V0L2,0z M1,2H0v1h1V2L1,2z M1,4H0v1h1V4L1,4z M1,6H0v1h1V6L1,6z M1,8H0v1h1V8L1,8z M1,10H0v1h1V10L1,10z
		 M1,12H0v1l0,0v1h1v-1l0,0V12L1,12z M3,13H2v1h1V13L3,13z M5,13H4v1h1V13L5,13z M7,13H6v1h1V13L7,13z M9,13H8v1h1V13L9,13z M11,13
		h-1v1h1V13L11,13z M13,13h-1v1h1V13L13,13z M14,13h-1v1h1V13L14,13z M14,11h-1v1h1V11L14,11z M14,9h-1v1h1V9L14,9z M14,7h-1v1h1V7
		L14,7z M14,5h-1v1h1V5L14,5z M14,3h-1v1h1V3L14,3z"/>
</svg>
