<?xml version="1.0" encoding="utf-8"?>
<svg version="1.1" xmlns="http://www.w3.org/2000/svg" xmlns:xlink="http://www.w3.org/1999/xlink"
	 xml:space="preserve"
	 id="icon-sitemap"
	 x="0px" y="0px"
	 width="14" height="14"
	 viewBox="0 0 14 14">
	<path d="M9.5,9h4C13.8,9,14,8.8,14,8.5v-2C14,6.2,13.8,6,13.5,6h-4C9.2,6,9,6.2,9,6.5V7H3V3h1.5C4.8,3,5,2.8,5,2.5
		v-2C5,0.2,4.8,0,4.5,0H3H2H0.5C0.2,0,0,0.2,0,0.5v2C0,2.8,0.2,3,0.5,3H2v5h1h3v5h1h2v0.5C9,13.8,9.2,14,9.5,14h4
		c0.3,0,0.5-0.2,0.5-0.5v-2c0-0.3-0.2-0.5-0.5-0.5h-4C9.2,11,9,11.2,9,11.5V12H7V8h2v0.5C9,8.8,9.2,9,9.5,9z"/>
</svg>
