<?xml version="1.0" encoding="utf-8"?>
<svg version="1.1" xmlns="http://www.w3.org/2000/svg" xmlns:xlink="http://www.w3.org/1999/xlink"
	 xml:space="preserve"
	 id="icon-animations"
	 x="0px" y="0px"
	 width="11" height="14"
	 viewBox="0 0 11 14">
	<path d="M5,7.5C5,7.8,4.8,8,4.5,8h-4C0.2,8,0,7.8,0,7.5v-7C0,0.2,0.2,0,0.5,0h4C4.8,0,5,0.2,5,0.5V7.5z M7.5,3
	H6v1h1v6H6H4V9H3v1v0.5C3,10.8,3.2,11,3.5,11h4C7.8,11,8,10.8,8,10.5v-7C8,3.2,7.8,3,7.5,3z M10.5,6H9v1h1v6H9H7v-1H6v1v0.5
	C6,13.8,6.2,14,6.5,14h4c0.3,0,0.5-0.2,0.5-0.5v-7C11,6.2,10.8,6,10.5,6z"/>
</svg>
