<?xml version="1.0" encoding="utf-8"?>
<svg version="1.1" xmlns="http://www.w3.org/2000/svg" xmlns:xlink="http://www.w3.org/1999/xlink"
	 xml:space="preserve"
	 id="icon-feature-chat"
	 x="0px" y="0px"
	 width="17" height="14"
	 viewBox="0 0 17 14">
	<path d="M16.5,2.8H4.2C4,2.8,3.8,3,3.8,3.3v7.5c0,0.3,0.2,0.5,0.5,0.5h8l2.8,2.8v-2.8h1.4c0.3,0,0.5-0.2,0.5-0.5V3.3
		C17,3,16.8,2.8,16.5,2.8z M16.1,10.3h-1.9v1.5l-1.5-1.5H4.7V3.7h11.3V10.3z"/>
	<path d="M6.6,5.6h7.6v0.9H6.6V5.6z"/>
	<path d="M6.6,7.5h7.6v0.9H6.6V7.5L6.6,7.5z"/>
	<path d="M2.4,7.5H0.9V0.9h11.3v0.9h0.9V0.5C13.2,0.2,13,0,12.8,0H0.5C0.2,0,0,0.2,0,0.5v7.5c0,0.3,0.2,0.5,0.5,0.5h1.9L2.4,7.5
		L2.4,7.5z"/>
	<path d="M11.3,11.2L11.3,11.2L11.3,11.2z"/>
</svg>
