<?xml version="1.0" encoding="utf-8"?>
<svg version="1.1" xmlns="http://www.w3.org/2000/svg" xmlns:xlink="http://www.w3.org/1999/xlink"
	 xml:space="preserve"
	 id="icon-folder-closed-outline"
	 x="0px" y="0px"
	 width="18" height="14"
	 viewBox="0 0 18 14">
	<path d="M17.9,2.3c0-0.1-0.1-0.2-0.1-0.2c0-0.1,0-0.1-0.1-0.2l0,0c-0.2-0.3-0.6-0.5-1-0.5h-1.3H14h-2.8H9.8H7.7L7,0H6.9H4.1H2.8
		L2.1,1.4H1.4c-0.1,0-0.1,0-0.1,0l0,0C0.6,1.5,0.1,2,0,2.7l0,0v0.1v1.3v2.8v1.4v2.9v1.4C0,13.4,0.6,14,1.4,14h1.4h2.9h1.4h2.8h1.4
		h2.8h1.5h1c0.8,0,1.4-0.6,1.4-1.4v-1v-1.5V7.3V5.9V3.1V2.8C18,2.6,18,2.5,17.9,2.3z M1,3.1l0.7-0.7h0.4h0.6L3,1.8L3.4,1h2.5L1,5.9
		V3.1z M1,7.3l5.7-5.7l0.1,0.2l0.3,0.6h0.6h1.1L1,10.2V7.3z M1.4,13C1.2,13,1,12.8,1,12.6v-1l9.2-9.2H13L2.4,13H1.4z M3.8,13
		L14.4,2.4h2.3c0.1,0,0.2,0.1,0.3,0.2L6.7,13H3.8z M16.6,13l0.4-0.4C17,12.8,16.8,13,16.6,13z M17,11.1L15.1,13h-2.8L17,8.3V11.1z
		M17,6.9L10.9,13H8.1L17,4.1V6.9z"/>
</svg>
