<?xml version="1.0" encoding="utf-8"?>
<svg version="1.1" xmlns="http://www.w3.org/2000/svg" xmlns:xlink="http://www.w3.org/1999/xlink"
	 xml:space="preserve"
	 id="icon-info-simple"
	 x="0px" y="0px"
	 width="14" height="14"
	 viewBox="0 0 14 14">
	<path d="M7,1c3.3,0,6,2.7,6,6s-2.7,6-6,6s-6-2.7-6-6S3.7,1,7,1z M7,0C3.1,0,0,3.1,0,7s3.1,7,7,7s7-3.1,7-7S10.9,0,7,0L7,0z"/>
	<path d="M6.2,3.8C6.2,3.3,6.6,3,7,3s0.8,0.3,0.8,0.8c0,0.4-0.3,0.8-0.8,0.8C6.6,4.5,6.2,4.2,6.2,3.8z M6.4,11V6.2h1.3V11H6.4L6.4,11
		z"/>
</svg>
