<?xml version="1.0" encoding="utf-8"?>
<svg version="1.1" xmlns="http://www.w3.org/2000/svg" xmlns:xlink="http://www.w3.org/1999/xlink"
	 xml:space="preserve"
	 id="icon-typography-underline"
	 x="0px" y="0px"
 	 width="14" height="14"
	 viewBox="0 0 14 14">
	<path d="M8.6,11.3V9.5H5.4v1.8c0,1.5-1.2,2.7-2.7,2.7S0,12.8,0,11.3c0-1.5,1.2-2.7,2.7-2.7h1.8V5.4H2.7C1.2,5.4,0,4.1,0,2.7
		S1.2,0,2.7,0c1.5,0,2.7,1.2,2.7,2.7v1.8h3.3V2.7C8.6,1.2,9.9,0,11.3,0S14,1.2,14,2.7s-1.2,2.7-2.7,2.7H9.6v3.3h1.8
		c1.5,0,2.7,1.2,2.7,2.7c0,1.5-1.2,2.7-2.7,2.7S8.6,12.8,8.6,11.3z M2.7,0.9c-1,0-1.8,0.8-1.8,1.8s0.8,1.8,1.8,1.8h1.7V2.7
		C4.4,1.7,3.7,0.9,2.7,0.9z M2.6,9.5c-1,0-1.7,0.8-1.7,1.8s0.8,1.8,1.8,1.8s1.8-0.8,1.8-1.8V9.5H2.6z M8.6,5.4H5.4v3.3h3.3V5.4z
		 M9.6,2.7v1.8h1.8c1,0,1.7-0.8,1.7-1.8s-0.7-1.8-1.7-1.8S9.6,1.7,9.6,2.7z M9.6,9.5v1.8c0,1,0.8,1.8,1.8,1.8s1.7-0.8,1.7-1.8
		s-0.7-1.8-1.7-1.8H9.6z"/>
</svg>
