<?xml version="1.0" encoding="utf-8"?>
<svg version="1.1" xmlns="http://www.w3.org/2000/svg" xmlns:xlink="http://www.w3.org/1999/xlink"
	 xml:space="preserve"
	 id="icon-layout-small-tile"
	 x="0px" y="0px"
	 width="14" height="14"
	 viewBox="0 0 14 14">
	<path d="M0,0h3.2v3.2H0V0z"/>
	<path d="M5.4,0h3.2v3.2H5.4C5.4,3.2,5.4,0,5.4,0z"/>
	<path d="M10.8,0H14v3.2h-3.2V0L10.8,0z"/>
	<path d="M0,5.4h3.2v3.2H0V5.4z"/>
	<path d="M5.4,5.4h3.2v3.2H5.4C5.4,8.6,5.4,5.4,5.4,5.4z"/>
	<path d="M10.8,5.4H14v3.2h-3.2V5.4L10.8,5.4z"/>
	<path d="M0,10.8h3.2V14H0V10.8L0,10.8z"/>
	<path d="M5.4,10.8h3.2V14H5.4L5.4,10.8L5.4,10.8z"/>
	<path d="M10.8,10.8H14V14h-3.2V10.8L10.8,10.8z"/>
</svg>
