<?xml version="1.0" encoding="utf-8"?>
<svg version="1.1" xmlns="http://www.w3.org/2000/svg" xmlns:xlink="http://www.w3.org/1999/xlink"
	 xml:space="preserve"
	 id="icon-libraries-design-libraries"
	 x="0px" y="0px"
	 width="13" height="14"
	 viewBox="0 0 13 14">
	<path d="M5.1,9.3h2.8c0.3,0,0.5-0.2,0.5-0.5l0,0c0-0.3-0.2-0.5-0.5-0.5H5.1c-0.3,0-0.5,0.2-0.5,0.5C4.6,9.2,4.8,9.3,5.1,9.3z"/>
	<path d="M5.1,3.7h2.8c0.3,0,0.5-0.2,0.5-0.5c0-0.3-0.2-0.5-0.5-0.5H5.1C4.8,2.8,4.6,3,4.6,3.3C4.6,3.5,4.8,3.7,5.1,3.7z"/>
	<path d="M12.5,0H0.5C0.2,0,0,0.2,0,0.5v11.2c0,0.3,0.2,0.5,0.5,0.5h1.4V14h0.9v-1.9h7.4V14h0.9v-1.9h1.4c0.3,0,0.5-0.2,0.5-0.5V0.5
		C13,0.2,12.8,0,12.5,0z M12.1,11.2H0.9V6.5h11.1V11.2z M12.1,5.6H0.9V0.9h11.1V5.6z"/>
</svg>
