<?xml version="1.0" encoding="utf-8"?>
<svg version="1.1" xmlns="http://www.w3.org/2000/svg" xmlns:xlink="http://www.w3.org/1999/xlink"
	 xml:space="preserve"
	 id="icon-libraries-more"
	 x="0px" y="0px"
	 width="16" height="14"
	 viewBox="0 0 16 14">
	<path d="M13.1,0H0v12.2h4.7v-0.9H0.9V8.4h11.3v1.8h0.9 M0.9,0.9h11.3v2.8H0.9V0.9z M0.9,7.5V4.7h11.3v2.8H0.9z"/>
	<path d="M7.1,11.3c-0.8,0-1.4,0.7-1.4,1.4S6.4,14,7.1,14s1.4-0.7,1.4-1.4S7.8,11.3,7.1,11.3z M7.1,13.1c-0.2,0-0.5-0.2-0.5-0.5
		s0.2-0.5,0.5-0.5c0.2,0,0.5,0.2,0.5,0.5C7.6,13,7.4,13.1,7.1,13.1z"/>
	<path d="M10.9,11.3c-0.8,0-1.4,0.7-1.4,1.4s0.7,1.4,1.4,1.4s1.4-0.7,1.4-1.4S11.6,11.3,10.9,11.3z M10.9,13.1
		c-0.2,0-0.5-0.2-0.5-0.5s0.2-0.5,0.5-0.5s0.5,0.2,0.5,0.5C11.3,13,11.1,13.1,10.9,13.1z"/>
	<path d="M14.6,11.3c-0.8,0-1.4,0.7-1.4,1.4S14,14,14.6,14s1.4-0.7,1.4-1.4S15.3,11.3,14.6,11.3z M14.6,13.1c-0.2,0-0.5-0.2-0.5-0.5
		s0.2-0.5,0.5-0.5s0.5,0.2,0.5,0.5C15.1,13,14.9,13.1,14.6,13.1z"/>
</svg>
