<?xml version="1.0" encoding="utf-8"?>
<svg version="1.1" xmlns="http://www.w3.org/2000/svg" xmlns:xlink="http://www.w3.org/1999/xlink"
	 xml:space="preserve"
	 id="icon-list-indentation-remove"
	 x="0px" y="0px"
	 width="19" height="14"
	 viewBox="0 0 19 14">
	<path d="M19,10.8c0-0.3-0.3-0.5-0.5-0.5h-6.6c-0.3,0-0.5,0.3-0.5,0.5v0.1c0,0.4,0.3,0.6,0.5,0.6h6.5
		c0.4,0,0.6-0.3,0.6-0.5V10.8z M16.5,8.4c0-0.4-0.3-0.6-0.6-0.6H12c-0.4,0-0.6,0.3-0.6,0.6l0,0C11.4,8.8,11.7,9,12,9h3.8
		C16.2,9,16.5,8.8,16.5,8.4L16.5,8.4z"/>
	<path d="M10.1,0.6v12.8c0,0.4-0.1,0.6-0.3,0.6H9.1c-0.1,0-0.3-0.3-0.3-0.6V0.6C8.8,0.3,9,0,9.1,0h0.6C10,0,10.1,0.3,10.1,0.6z"/>
	<path d="M16.5,3.2c0-0.4-0.3-0.6-0.6-0.6H12c-0.4,0-0.6,0.3-0.6,0.6l0,0c0,0.4,0.3,0.6,0.6,0.6h3.8C16.2,3.8,16.5,3.6,16.5,3.2
		L16.5,3.2z"/>
	<path d="M19,5.6c0-0.3-0.3-0.5-0.5-0.5h-6.6c-0.3,0-0.5,0.3-0.5,0.5v0.1c0,0.4,0.3,0.6,0.5,0.6h6.5C18.8,6.3,19,6,19,5.8V5.6z"/>
	<path d="M4.4,10L0.2,7.5c-0.3-0.1-0.3-0.6,0-0.8l4.2-2.5C4.6,3.9,5,4.2,5,4.5v5C5,9.9,4.6,10.2,4.4,10z"/>
</svg>
