<?xml version="1.0" encoding="utf-8"?>
<svg version="1.1" xmlns="http://www.w3.org/2000/svg" xmlns:xlink="http://www.w3.org/1999/xlink"
	 xml:space="preserve"
	 id="icon-list-ordered"
	 x="0px" y="0px"
	 width="12" height="14"
	 viewBox="0 0 12 14">
	<rect x="3.8" y="1.6" width="8.2" height="1.6"/>
	<rect x="3.8" y="5.8" width="8.2" height="1.6"/>
	<rect x="3.8" y="9.9" width="8.2" height="1.6"/>
	<path d="M0,13.3l0.4-0.4c0.2,0.2,0.5,0.5,0.8,0.5c0.4,0,0.7-0.2,0.7-0.6c0-0.4-0.3-0.6-0.7-0.6c-0.1,0-0.2,0-0.3,0v-0.6
		c0.1,0,0.2,0,0.3,0c0.3,0,0.7-0.2,0.7-0.6c0-0.4-0.2-0.6-0.6-0.6S0.7,10.7,0.6,11l-0.4-0.3C0.4,10.2,0.8,10,1.4,10
		c0.7,0,1.2,0.3,1.2,1.1c0,0.5-0.3,0.8-0.7,0.9c0.2,0,0.7,0.4,0.7,0.9c0,0.7-0.4,1.2-1.2,1.2C0.7,14,0.2,13.7,0,13.3z"/>
	<path d="M0.2,8.7V8.2C1.5,6.8,1.9,6.5,1.9,6c0-0.3-0.2-0.6-0.6-0.6S0.7,5.6,0.5,5.9L0.1,5.4C0.4,5,0.8,4.8,1.3,4.8
		C2,4.9,2.5,5.3,2.5,5.9S2.1,7.1,1.1,8.2h1.4v0.6C2.5,8.7,0.2,8.7,0.2,8.7z"/>
	<path d="M1.2,3.9v-3L0.5,1.5L0.2,1.1L1.2,0h0.6v3.9H1.2z"/>
</svg>
