<?xml version="1.0" encoding="utf-8"?>
<svg version="1.1" xmlns="http://www.w3.org/2000/svg" xmlns:xlink="http://www.w3.org/1999/xlink"
	 xml:space="preserve"
	 id="icon-search"
	 x="0px" y="0px"
	 width="14" height="14"
	 viewBox="0 0 14 14">
	<path d="M13.9,13.1l-3.6-3.4c2.1-2.3,1.9-5.8-0.3-7.9C8.9,0.5,7.4,0,5.9,0s-3,0.5-4.2,1.7c-2.3,2.3-2.3,6,0,8.3
		c1.2,1.2,2.7,1.7,4.2,1.7c1.3,0,2.6-0.4,3.7-1.3l3.5,3.4c0.2,0.2,0.5,0.2,0.8,0C14,13.6,14,13.2,13.9,13.1z M2.5,9.2
		C1.6,8.4,1,7.1,1,5.8s0.5-2.5,1.4-3.4c1-0.8,2.2-1.3,3.5-1.3s2.5,0.5,3.5,1.4c0.9,0.9,1.4,2.1,1.4,3.4s-0.5,2.5-1.4,3.3
		s-2.2,1.4-3.5,1.4S3.4,10.1,2.5,9.2z"/>
</svg>
