<?xml version="1.0" encoding="utf-8"?>
<svg version="1.1" xmlns="http://www.w3.org/2000/svg" xmlns:xlink="http://www.w3.org/1999/xlink"
	 xml:space="preserve"
	 id="icon-status-progress"
	 x="0px" y="0px"
	 width="9" height="14"
	 viewBox="0 0 9 14">
	<path d="M1,0H0v1v3l3,3l-3,3v3v1h8h1v-1v-3L6,7l3-3V1V0H1z M8,3.6L5.3,6.3L4.6,7L8,10.4V13H1v-2.6L4.4,7L3.7,6.3L1,3.6V1h7V3.6z"/>
	<polygon points="3,3 3,4 4,4 4,5 5,5 5,4 6,4 6,3 "/>
	<polygon points="6,11 6,10 5,10 5,9 4,9 4,10 3,10 3,11 2,11 2,12 7,12 7,11 "/>
</svg>
