<?xml version="1.0" encoding="utf-8"?>
<svg version="1.1" xmlns="http://www.w3.org/2000/svg" xmlns:xlink="http://www.w3.org/1999/xlink"
	 xml:space="preserve"
	 id="stroke-point-asymmetric"
	 x="0px" y="0px"
	 width="23" height="14"
	 viewBox="0 0 23 14">
	<path d="M23,12.9c0-0.9-2.7-7.9-12-9.1l0,0h6.1c0.2,0.9,1,1.5,1.9,1.5c0.5,0,1-0.2,1.4-0.6c0.8-0.8,0.8-2,0-2.8
		c-0.4-0.4-0.9-0.6-1.4-0.6h-0.1c-0.9,0-1.6,0.6-1.9,1.5h-6c-0.1-0.5-0.3-0.9-0.7-1.2C9.9,1,9.2,0.7,8.6,0.8H8.5
		c-1.2,0-2.1,0.9-2.4,2H4C3.9,2.4,3.7,2.1,3.5,1.9C3.1,1.5,2.6,1.2,2.1,1.3H2c-1.1,0-2,0.9-2,2s0.9,2,2,2c0.9,0,1.8-0.6,2-1.5h2.1
		c0,0.1,0.1,0.1,0.1,0.2c-1.7,0.7-3.1,2.9-3.1,9.3h1c0-0.7,0-1.3,0-1.9l6.6-6.6C11.4,4.8,12.2,5,13,5.2l-8,8.1h1.4l7.7-7.7
		c0.7,0.2,1.4,0.5,2,0.8l-6.9,6.9h1.4L17,6.9c0.6,0.4,1.1,0.8,1.6,1.2l-5.1,5.2h1.4l4.5-4.5c0.5,0.5,0.9,1,1.3,1.5l-2.9,3h1.4
		l2.1-2.1c0.3,0.5,0.6,1.1,0.8,1.7c0,0.1,0,0.2,0,0.3v0.1h1C23,13.2,23,13,23,12.9z M19,2.3c0.3,0,0.5,0.1,0.7,0.3
		C19.9,2.7,20,3,20,3.3c0,0.3-0.1,0.5-0.3,0.7c-0.2,0.2-0.4,0.3-0.7,0.3l0,0c-0.6,0-1-0.4-1-1S18.5,2.3,19,2.3z M2.1,4.3L2.1,4.3
		c-0.6,0-1-0.4-1-1c0-0.6,0.4-1,1-1c0.3,0,0.5,0.1,0.7,0.3C3,2.7,3.1,3,3.1,3.3C3.1,3.8,2.6,4.3,2.1,4.3z M8.6,1.8
		c0.4,0,0.8,0.2,1,0.5c0.3,0.3,0.4,0.6,0.4,1c0,0.8-0.6,1.5-1.4,1.5H8.5C7.7,4.7,7,4.1,7,3.3C7,2.4,7.7,1.8,8.6,1.8
		C8.5,1.7,8.5,1.7,8.6,1.8z M6.6,4.8L6.8,5c0.4,0.4,1,0.7,1.5,0.7L4.2,9.8C4.6,6.5,5.6,5.3,6.6,4.8z"/>
</svg>
