<?xml version="1.0" encoding="utf-8"?>
<svg version="1.1" xmlns="http://www.w3.org/2000/svg" xmlns:xlink="http://www.w3.org/1999/xlink"
	 xml:space="preserve"
	 id="stroke-point-mirrored"
	 x="0px" y="0px"
	 width="20" height="14"
	 viewBox="0 0 20 14">
	<path d="M18,1c-0.9,0-1.7,0.6-1.9,1.5h-3.6c-0.3-1.4-1.6-2.2-2.9-2c-1,0.2-1.8,1-2,2H3.9C3.6,1.4,2.6,0.8,1.5,1.1
		C0.4,1.3-0.2,2.4,0.1,3.5s1.4,1.7,2.4,1.4c0.7-0.2,1.3-0.7,1.4-1.4h3.6c0,0.1,0.1,0.2,0.1,0.3C3.2,4.9,0,8.9,0,13.5h1l8.1-8.1
		C9.4,5.4,9.7,5.5,10,5.5c0.7,0,1.3-0.3,1.8-0.8c0.2,0,0.5,0.1,0.7,0.1l-8.6,8.6h1.4l8.3-8.3c0.6,0.3,1.2,0.6,1.8,1l-7.2,7.3h1.4
		l6.6-6.6c0.5,0.5,0.9,1,1.3,1.5l-5.1,5.1h1.4L18,9.3c0.3,0.6,0.6,1.3,0.8,2.1l-2.2,2.2H18l1-1v1h1c0-1-0.1-2-0.4-3l0,0
		c-0.5-1.7-1.5-3.1-2.7-4.3l0,0c-0.2-0.2-0.5-0.4-0.8-0.6l0,0c-1.1-0.8-2.4-1.4-3.7-1.7c0-0.1,0.1-0.2,0.1-0.3h3.6
		c0.3,1.1,1.3,1.7,2.4,1.5c1.1-0.3,1.7-1.3,1.5-2.4C19.7,1.6,18.9,1,18,1z M2,4C1.4,4,1,3.6,1,3s0.4-1,1-1s1,0.4,1,1S2.5,4,2,4z
	 	M1.1,12c0.6-3.6,3.4-6.5,7-7.2l0.1,0.1L1.1,12z M10,4.5C9.2,4.5,8.5,3.8,8.5,3S9.2,1.5,10,1.5c0.8,0,1.5,0.7,1.5,1.5
		S10.8,4.5,10,4.5z M18,4c-0.6,0-1-0.4-1-1s0.4-1,1-1c0.6,0,1,0.4,1,1S18.5,4,18,4z"/>
</svg>
