<?xml version="1.0" encoding="utf-8"?>
<svg version="1.1" xmlns="http://www.w3.org/2000/svg" xmlns:xlink="http://www.w3.org/1999/xlink"
	 xml:space="preserve"
	 id="icon-typography-inline-height"
	 x="0px" y="0px"
	 width="9" height="14"
	 viewBox="0 0 9 14">
	<path d="M5.4,12.2h-2L3,13.1c-0.1,0.2-0.1,0.4-0.1,0.5c0,0.1,0,0.2,0.1,0.2c0.1,0.1,0.2,0.1,0.5,0.1V14H1.8v-0.1
		c0.2,0,0.4-0.1,0.4-0.2c0.1-0.1,0.3-0.4,0.4-0.8l1.9-4.4h0.1L6.5,13c0.1,0.4,0.3,0.6,0.4,0.7c0.1,0.1,0.3,0.2,0.5,0.2V14H5.3v-0.1
		c0.2,0,0.4,0,0.4-0.1c0.1-0.1,0.1-0.1,0.1-0.2c0-0.1-0.1-0.3-0.2-0.5L5.4,12.2z M5.3,11.9L4.4,9.8l-0.9,2.1H5.3z"/>
	<rect y="6.8" width="9" height="0.5"/>
	<path d="M5.4,3.6h-2L3,4.5C2.9,4.7,2.8,4.8,2.8,4.9c0,0.1,0,0.2,0.1,0.2C3,5.2,3.2,5.3,3.4,5.3v0.1H1.8V5.3c0.2,0,0.4-0.1,0.4-0.2
		C2.3,5,2.5,4.7,2.6,4.4L4.5,0h0.1l1.8,4.4C6.6,4.8,6.8,5,6.9,5.1C7,5.2,7.2,5.3,7.4,5.3v0.1H5.3V5.3c0.2,0,0.4,0,0.4-0.1
		C5.8,5.1,5.8,5,5.8,4.9c0-0.1-0.1-0.3-0.2-0.5L5.4,3.6z M5.3,3.4L4.4,1.2L3.4,3.4H5.3z"/>
</svg>
