<?xml version="1.0" encoding="utf-8"?>
<svg version="1.1" xmlns="http://www.w3.org/2000/svg" xmlns:xlink="http://www.w3.org/1999/xlink"
	 xml:space="preserve"
	 id="icon-typography-letter-spacing"
	 x="0px" y="0px"
	 width="16" height="14"
	 viewBox="0 0 16 14">
	<path d="M2.5,6.9L0,0.8h0.8L2.9,6L5,0.8h0.8L3.4,6.9H2.5L2.5,6.9z"/>
	<path d="M15.3,6.9l-0.6-1.4h-3l-0.6,1.4h-0.8l2.4-6.1h0.9L16,6.9H15.3L15.3,6.9z M13.2,1.5l-1.3,3.3h2.6L13.2,1.5L13.2,1.5z"/>
	<path d="M6.3,8.2L9.1,0h0.7L7,8.2H6.3L6.3,8.2z"/>
	<path d="M15.1,12.2l-2.3-1.8v1.2H3.4v-1.2l-2.3,1.8L3.4,14v-1.2h9.3V14L15.1,12.2z"/>
</svg>
