<?xml version="1.0" encoding="utf-8"?>
<svg version="1.1" xmlns="http://www.w3.org/2000/svg" xmlns:xlink="http://www.w3.org/1999/xlink"
	 xml:space="preserve"
	 id="icon-align-left"
	 x="0px" y="0px"
	 width="16" height="14"
	 viewBox="0 0 16 14">
	<path d="M16,0.9c0,0.4-0.3,0.7-0.7,0.7H0.7C0.3,1.6,0,1.3,0,0.9V0.7C0,0.3,0.3,0,0.7,0h14.6
	C15.7,0,16,0.3,16,0.7V0.9z M16,13.1c0-0.4-0.3-0.7-0.7-0.7H0.7c-0.4,0-0.7,0.3-0.7,0.7v0.2C0,13.7,0.3,14,0.7,14h14.6
	c0.4,0,0.7-0.3,0.7-0.7V13.1z M9.6,7c0-0.4-0.4-0.8-0.8-0.8h-8C0.4,6.2,0,6.6,0,7l0,0c0,0.4,0.4,0.8,0.8,0.8h8
	C9.2,7.8,9.6,7.4,9.6,7L9.6,7z"/>
</svg>
