<?xml version="1.0" encoding="utf-8"?>
<svg version="1.1" xmlns="http://www.w3.org/2000/svg" xmlns:xlink="http://www.w3.org/1999/xlink"
	 xml:space="preserve"
	 id="icon-typography-lowercase"
	 x="0px" y="0px"
 	 width="13" height="14"
	 viewBox="0 0 13 14">
	<path d="M1.8,11.5V4.4H0V2.9h1.8V0h1.7v2.9h2.2v1.5H3.5v6.7c0,0.8,0.4,1.4,1.1,1.4c0.5,0,0.9-0.2,1.1-0.4l0.5,1.2
		c-0.4,0.4-1,0.7-2,0.7C2.6,14,1.8,13.1,1.8,11.5z"/>
	<path d="M8.6,11.5V4.4H6.8V2.9h1.8V0h1.7v2.9h2.2v1.5h-2.2v6.7c0,0.8,0.4,1.4,1.1,1.4c0.5,0,0.9-0.2,1.1-0.4l0.5,1.2
		c-0.4,0.4-1,0.7-2,0.7C9.4,14,8.6,13.1,8.6,11.5z"/>
</svg>
