<?xml version="1.0" encoding="utf-8"?>
<svg version="1.1" xmlns="http://www.w3.org/2000/svg" xmlns:xlink="http://www.w3.org/1999/xlink"
	 xml:space="preserve"
	 id="icon-user-add"
	 x="0px" y="0px"
	 width="12" height="14"
	 viewBox="0 0 12 14">
	<path d="M12,2v1h-2v2H9V3H7V2h2V0h1v2H12z M8,13v1H7v-1c0-1.7-1.3-3-3-3s-3,1.3-3,3v1H0v-1c0-1.6,1-3.1,2.5-3.7
	C1.8,8.5,1.8,7.2,2.7,6.5s2.1-0.7,2.8,0.2c0.7,0.8,0.7,1.9,0,2.6C7,9.9,8,11.4,8,13z M3,8c0,0.6,0.4,1,1,1s1-0.4,1-1S4.6,7,4,7
	S3,7.4,3,8z"/>
</svg>
