<?xml version="1.0" encoding="utf-8"?>
<svg version="1.1" xmlns="http://www.w3.org/2000/svg" xmlns:xlink="http://www.w3.org/1999/xlink"
	 xml:space="preserve"
	 id="icon-user-simple"
	 x="0px" y="0px"
	 width="12" height="14"
	 viewBox="0 0 12 14">
	<path d="M7.9,6.3c1.3-1,1.5-2.9,0.4-4.2S5.4,0.6,4.1,1.7S2.6,4.6,3.7,5.9C3.8,6,3.9,6.2,4.1,6.3C1.7,7.1,0,9.4,0,12v2h1v-2
	c0-2.8,2.2-5,5-5l0,0c2.8,0,5,2.2,5,5v2h1v-2C12,9.4,10.3,7.1,7.9,6.3z M4,4c0-1.1,0.9-2,2-2s2,0.9,2,2S7.1,6,6,6l0,0
	C4.9,6,4,5.1,4,4z"/>
</svg>
