<?xml version="1.0" encoding="utf-8"?>
<svg version="1.1" xmlns="http://www.w3.org/2000/svg" xmlns:xlink="http://www.w3.org/1999/xlink"
	xml:space="preserve"
	id="icon-variable"
	x="0px" y="0px"
	width="15" height="14"
	viewBox="0 0 15 14">
	<path d="M9.39,7.28a3,3,0,0,0-.77-.44L8,6.62V3.69a1.74,1.74,0,0,1,.55.16,1.8,1.8,0,0,1,.64.53L10,3.69a2.42,2.42,0,0,0-1-.7A3.1,3.1,0,0,0,8,2.79V2H7v.79A2.88,2.88,0,0,0,6.3,3a2.77,2.77,0,0,0-.73.47,2.19,2.19,0,0,0-.5.7A2.14,2.14,0,0,0,4.89,5a2.13,2.13,0,0,0,.18.9,1.93,1.93,0,0,0,.5.66,3,3,0,0,0,.73.47A5.78,5.78,0,0,0,7,7.3v3A2.19,2.19,0,0,1,6.22,10a1.72,1.72,0,0,1-.71-.62l-.81.7a2.39,2.39,0,0,0,1.09.83A4.06,4.06,0,0,0,7,11.17V12H8v-.86A2.94,2.94,0,0,0,8.65,11a2.63,2.63,0,0,0,.77-.48,2.33,2.33,0,0,0,.52-.71,2.18,2.18,0,0,0,.19-.93,1.9,1.9,0,0,0-.2-.94A1.76,1.76,0,0,0,9.39,7.28ZM7,6.3l-.32-.14a1.84,1.84,0,0,1-.4-.26A1.19,1.19,0,0,1,6,5.54a1.06,1.06,0,0,1-.1-.5,1.32,1.32,0,0,1,.34-.92A1.58,1.58,0,0,1,7,3.71ZM8.7,9.84a1.75,1.75,0,0,1-.7.37V7.62l.23.08A1.92,1.92,0,0,1,8.67,8,1.16,1.16,0,0,1,9,8.36a1.19,1.19,0,0,1,.12.54A1.25,1.25,0,0,1,8.7,9.84ZM2.83,1h.79v.92H2.83A.9.9,0,0,0,2,2.9v3A1.1,1.1,0,0,1,1.42,7,1.1,1.1,0,0,1,2,8.14v2.95a.91.91,0,0,0,.83,1h.79V13H2.83A1.83,1.83,0,0,1,1,11.1V8.27C1,7.8.79,7.4.35,7.4H0V6.6H.35c.44,0,.66-.4.66-.87V2.91A1.83,1.83,0,0,1,2.83,1ZM15,6.6v.8h-.35c-.44,0-.66.4-.66.87v2.82A1.83,1.83,0,0,1,12.17,13h-.79v-.92h.79a.9.9,0,0,0,.83-1v-3A1.1,1.1,0,0,1,13.58,7,1.1,1.1,0,0,1,13,5.86V2.91a.91.91,0,0,0-.83-1h-.79V1h.79A1.83,1.83,0,0,1,14,2.9V5.73c0,.47.22.87.66.87Z"/>
</svg>
