<svg version="1.1" xmlns="http://www.w3.org/2000/svg" xmlns:xlink="http://www.w3.org/1999/xlink"
	 xml:space="preserve"
	 id="icon-visibility-hidden-solid"
	 x="0px" y="0px"
	 width="14" height="14"
	 viewBox="0 0 14 14">
	<path d="M2.5,9.4C1,8.3,0,7,0,7s3-4,7-4c0.6,0,1.1,0.1,1.6,0.2L7.8,4.1C7.5,4,7.3,4,7,4C5.3,4,4,5.3,4,7c0,0.3,0,0.5,0.1,0.8
	L2.5,9.4z M11.5,4.6L9.9,6.2C10,6.5,10,6.7,10,7c0,1.7-1.3,3-3,3c-0.3,0-0.5,0-0.8-0.1l-0.9,0.9C5.9,10.9,6.4,11,7,11c4,0,7-4,7-4
	S13,5.7,11.5,4.6z M11.6,1.7l-9.9,9.9l0.7,0.7l9.9-9.9L11.6,1.7z"/>
</svg>
