<?xml version="1.0" encoding="utf-8"?>
<svg version="1.1" xmlns="http://www.w3.org/2000/svg" xmlns:xlink="http://www.w3.org/1999/xlink"
	 xml:space="preserve"
	 id="icon-visibility-hidden-outline"
	 x="0px" y="0px"
 	 width="15" height="14"
	 viewBox="0 0 15 14">
	<polygon points="14,0 0.3,13.5 0.8,14 14.5,0.5 "/>
	<path d="M2.8,10.3l0.6-0.6C2.2,9,1.3,8.1,0.9,7c0.9-2.2,3.6-3.8,6.6-3.8c0.8,0,1.4,0,2.2,0.2l0.7-0.6c-1-0.4-1.9-0.4-2.9-0.4
		C4,2.5,1,4.3,0,6.9V7v0.1C0.5,8.4,1.5,9.5,2.8,10.3z"/>
	<path d="M7.6,9C7.4,9,7.1,9,6.9,8.9L6.3,9.5c0.4,0.2,0.8,0.3,1.3,0.3c1.5,0,2.8-1.2,2.8-2.8c0-0.5-0.1-0.9-0.3-1.3L9.4,6.3
		C9.5,6.5,9.5,6.7,9.5,7C9.5,8.1,8.6,9,7.6,9z"/>
	<path d="M14.9,6.9c-0.5-1.3-1.5-2.4-2.8-3.2l-0.6,0.6C12.7,5,13.7,5.9,14.1,7c-0.9,2.2-3.5,3.8-6.6,3.8c-0.8,0-1.6-0.1-2.3-0.3
		L4.6,11c0.9,0.3,1.9,0.5,3,0.5c3.5,0,6.5-1.8,7.4-4.4V7L14.9,6.9z"/>
	<path d="M7.6,5C7.8,5,8,5.1,8.2,5.1l0.6-0.6C8.4,4.3,8,4.2,7.6,4.2C6,4.2,4.7,5.5,4.7,7c0,0.5,0.1,0.9,0.3,1.2l0.6-0.6
		c0-0.2,0-0.4,0-0.6C5.6,5.9,6.4,5,7.6,5z"/>
</svg>
